<svg width="100" height="100" viewBox="0 0 100 100" fill="none" xmlns="http://www.w3.org/2000/svg">
<rect width="100" height="100" rx="8" fill="#1CA2A5" fill-opacity="0.1"/>
<g clip-path="url(#clip0_1836_33129)">
<path fill-rule="evenodd" clip-rule="evenodd" d="M18.6772 52.0998L20.0958 53.9061C20.5793 54.2573 20.9806 54.8046 21.3684 55.2425C22.0161 55.9723 23.2704 56.8983 24.1416 57.6189C24.4335 57.8607 24.5841 57.9975 24.8623 58.2119C25.1451 58.4263 25.2409 58.5312 25.437 58.8186C25.8111 58.9828 27.1065 60.155 27.4531 60.675C27.9047 60.894 28.3927 61.4596 28.7622 61.8701C29.4236 62.609 32.4979 64.689 32.913 65.1633C33.4147 65.3458 34.7193 66.4314 35.0249 66.7871C35.5859 67.1064 35.9462 67.4713 36.4617 67.8636C36.9178 68.2148 37.3967 68.5889 37.8164 68.9264C38.382 69.3825 39.9237 70.6916 40.2612 71.2481C40.5486 71.4123 42.4963 73.4238 42.5784 73.5652C43.1805 73.9347 44.0882 74.701 44.672 75.2164C45.3653 75.8231 45.9993 76.4343 46.7748 77.0136L48.8501 78.7104C49.9403 78.9932 52.6725 81.1142 55.9338 80.3661C58.6022 79.7549 59.4871 78.2542 59.9295 75.3806C60.819 76.115 61.7449 76.7901 62.9628 77.4241C64.2263 78.0809 65.7862 78.2679 67.4602 78.1904C69.0612 78.1128 70.1651 77.196 70.8128 76.3978C71.6612 75.3487 71.9348 73.9347 71.9531 72.247C73.1618 72.6256 73.8004 73.3372 76.0491 72.8628C78.8224 72.2789 80.7473 70.2218 80.542 67.2296C80.4143 65.3823 79.8806 64.7939 79.2283 63.5578C82.8226 63.0423 85.4545 59.1242 83.8124 54.9278C83.1602 53.2629 82.1749 52.7429 81.7964 52.0998C81.135 51.7531 80.4964 50.7177 79.949 50.4121C79.4747 49.7279 73.1025 44.5189 72.4959 44.1038C71.7706 43.6112 71.0545 43.1505 70.457 42.6305C69.8595 42.106 69.2574 41.513 68.6097 41.0843C67.7476 40.5141 67.2869 40.3225 66.6301 39.6657C66.0234 39.0636 65.362 38.4935 64.4999 38.4387C64.4999 38.8903 64.6915 39.4057 64.7234 40.0489C64.7508 40.5643 64.6641 41.285 64.7919 41.6772C67.6381 43.2326 67.629 43.78 69.864 45.4175C71.7068 46.7676 71.2278 46.2796 73.2394 47.9581C73.8232 48.4462 74.2839 48.843 74.8358 49.322C76.6558 50.9138 76.9888 51.0279 78.7175 52.7794C79.4929 53.5594 80.168 54.0338 80.9251 54.9552C81.8511 56.0772 82.2023 58.034 81.3448 59.5393C81.0665 60.0273 80.3185 60.6294 79.8031 60.9533C79.0505 61.4322 78.275 61.3546 77.34 61.1676C76.5737 61.0171 75.4151 59.8813 74.7993 59.3249C73.513 58.1663 71.424 56.5881 69.9735 55.3839C69.6907 55.1513 69.4763 54.8685 69.2026 54.6267C68.6826 54.1615 68.2265 53.6826 67.6655 53.2082L64.4817 50.4714C64.0392 50.1293 63.2547 49.3539 62.3516 49.7325C61.6218 50.0381 61.4074 51.0507 61.9274 51.7075C62.1737 52.0131 63.0449 52.6608 63.4463 53.0348C64.3175 53.8513 65.9778 55.1102 66.6301 55.7716C66.8809 56.0271 67.109 56.1867 67.3918 56.4376C67.6609 56.6793 67.8798 56.9621 68.1627 57.1947C69.2254 58.0568 70.3521 58.928 71.4696 59.8084C72.9566 60.9852 76.5326 63.8132 77.5224 65.4781C79.6571 69.0724 76.1175 71.8958 72.6555 69.9025C68.7739 67.6675 69.2893 67.3801 66.0964 64.7437L58.1415 57.9063C57.6033 57.4091 57.2384 56.953 56.6636 56.433C54.5107 54.4762 53.3248 56.3646 53.9132 57.5368C54.1458 57.9975 55.0261 58.513 55.464 58.9417C55.7377 59.2108 55.87 59.4298 56.1482 59.6761L61.8863 64.3514C62.4428 64.803 62.9263 65.2728 63.4782 65.7198L67.3371 69.2046C67.8799 69.7702 69.084 70.6095 69.3851 71.6495C69.9096 73.4877 69.1935 75.221 67.7521 75.6315C67.1318 75.8094 65.7452 75.7182 65.1157 75.5904C64.2992 75.4262 63.7382 75.0203 63.1087 74.6417L58.0822 70.9014C57.6352 70.459 57.1106 69.8478 56.5907 69.4373C56.0342 68.9948 55.5644 68.5524 55.017 68.0552C53.9862 67.1156 49.3701 63.2886 48.4442 62.8872C47.5274 62.4904 46.6334 63.0834 46.7018 64.0458C46.7748 65.0402 48.6722 65.8384 49.8719 66.8419C50.6975 67.5306 52.3213 68.7987 53.0511 69.5787C54.7616 71.3986 58.6569 73.2414 57.325 76.4936C56.0752 79.5496 51.3452 77.4286 49.2926 75.855L44.4348 71.8411C43.5545 71.0748 42.3868 69.7839 41.5065 68.8534C41.1005 68.4292 40.3889 67.9138 39.9054 67.4941C38.8472 66.5728 37.7525 65.7244 36.6396 64.8486C34.7877 63.389 30.6871 60.4515 29.3871 58.9554C28.4749 57.9017 24.5476 54.6952 23.1245 53.3815C22.8325 53.1124 22.6592 52.8387 22.4311 52.5331C20.8438 50.4075 20.2235 50.289 18.6088 47.5932C15.9039 43.0821 16.1137 38.1331 17.9291 33.3666C19.4298 29.4302 22.8736 26.2555 26.4542 24.2531C27.7131 23.5507 29.1089 23.0215 30.5913 22.4742C32.9905 21.5847 38.8153 21.8539 41.1279 22.7661C43.1759 23.5735 45.1464 24.6317 46.9298 25.8404C47.646 26.3239 47.2856 26.4471 48.5035 27.2088C48.7772 26.853 48.8319 26.3695 49.0736 25.9499C49.4431 25.3113 49.6028 25.4938 50.1455 25.1517C49.995 24.878 47.8375 23.2496 47.3997 22.9623C44.079 20.8093 40.3525 19.4865 36.1013 19.4683C32.0099 19.4501 31.1934 19.5778 27.7542 20.9781C25.1634 22.0363 23.462 23.3317 21.5143 24.7138C20.0866 25.731 19.9863 26.1825 19.0558 27.186C17.4776 28.8919 17.0716 30.0186 16.173 31.647C15.8446 32.2399 15.5938 32.5911 15.311 33.3073C13.7647 37.2437 13.4864 41.8962 14.9917 45.828C15.2152 46.4119 15.3657 47.0185 15.6531 47.575C16.7751 49.769 17.1355 50.2205 18.6726 52.0952L18.6772 52.0998Z" fill="#1CA2A5"/>
<path fill-rule="evenodd" clip-rule="evenodd" d="M50.1339 25.1609C49.5911 25.503 49.4269 25.3205 49.062 25.9591C48.8202 26.3787 48.7655 26.8668 48.4918 27.218C48.4325 27.7334 47.1827 31.2684 46.9182 32.1442C46.6901 32.8923 46.4894 33.8912 46.2431 34.6438C45.7915 36.0213 45.8417 35.9027 46.6308 36.9837C48.4371 39.456 50.216 42.1289 52.0952 44.446C52.7292 45.2306 56.0362 49.0894 56.6976 49.4908C57.7968 50.1568 58.3898 49.0484 58.8733 48.8066C60.3922 48.0357 61.496 47.201 62.6044 46.0744C63.7128 44.9523 64.3104 43.9534 64.5977 42.3752L64.7802 41.691C64.6479 41.2987 64.7391 40.578 64.7118 40.0626C64.6798 39.4195 64.4883 38.8995 64.4883 38.4525C63.763 37.5311 64.1735 36.7466 60.5838 33.8821C60.3694 33.7133 60.1277 33.5947 59.895 33.3849C59.9133 32.2947 60.5883 30.7804 59.7719 29.9867C58.7137 28.9559 57.7284 30.1737 57.5505 31.273C57.4046 32.1807 57.1035 34.0873 57.5505 34.8399C57.8288 35.3143 58.2849 35.4785 58.7228 35.7476C59.1151 35.9939 59.5164 36.3908 59.8677 36.6873C63.9865 40.1447 62.1164 44.2362 57.5779 46.6172C57.254 46.3982 56.3783 45.4358 56.0727 45.08C53.2173 41.7457 51.744 39.6475 49.1623 36.2129C48.1634 34.8855 48.1315 35.5469 49.5044 31.7747C50.0107 30.3835 50.5535 28.4587 51.1693 27.1906C51.4293 26.657 52.597 26.2601 53.1443 25.9865C56.7295 24.2167 60.8164 22.3785 65.0721 22.1687C68.9081 21.9771 72.6438 22.8346 75.1161 24.609C78.0079 26.6798 77.8346 26.9033 79.7503 29.3983C80.2156 30.005 80.6535 30.5067 81.0549 31.2684C82.3639 33.7543 83.8692 37.8321 83.5088 41.3489C83.3811 42.6033 82.9478 45.6046 82.5464 46.6217C82.104 47.7438 80.7219 49.9606 79.9328 50.4167C80.4801 50.7224 81.1142 51.7578 81.7801 52.1044C83.4906 50.3711 84.9228 48.5284 85.3516 45.9284C85.9172 42.5029 86.2411 40.797 85.7849 37.1479C85.5295 35.0771 84.0653 31.5467 83.2169 29.9776C82.6376 28.9057 81.8668 28.039 81.1507 27.1131C80.357 26.0777 79.837 25.2475 78.9339 24.3946C75.481 21.1332 70.8148 19.1719 64.2511 19.6736C60.1094 19.9929 56.7386 21.6441 53.2538 23.3546C52.7064 23.6237 52.1591 23.8746 51.6619 24.1756C51.2377 24.4356 50.4395 25.0514 50.1339 25.1609Z" fill="#1CA2A5"/>
<path fill-rule="evenodd" clip-rule="evenodd" d="M48.8354 78.7154L46.76 77.0186C46.0347 78.1498 41.8155 76.6491 42.5682 73.5748C42.4906 73.4334 40.5384 71.4219 40.251 71.2577L36.643 74.3639C33.7192 76.5351 29.4499 74.8657 30.8684 70.8928C31.0646 70.3454 34.1434 68.2427 35.0147 66.7967C34.709 66.4364 33.4091 65.3508 32.9028 65.1729C32.4193 66.0213 31.6895 66.2767 30.8548 66.9381C30.1569 67.4946 29.5411 68.416 28.8797 68.7946C27.2194 69.7479 24.8567 70.6921 23.2009 69.1869C21.5588 67.6908 21.5315 65.5743 23.1599 63.9505C24.8612 62.2491 25.2307 62.76 27.4475 60.6846C27.1008 60.1601 25.8054 58.9878 25.4314 58.8282C24.9023 59.4257 23.616 60.3562 22.7265 60.6755C21.2715 61.1955 20.1813 60.6207 19.3877 59.8545C16.5962 57.1587 18.8996 55.3889 20.0901 53.9156L18.6715 52.1094C17.7137 52.6704 16.879 53.5827 16.2586 54.536C14.7716 56.8258 15.4695 59.7997 17.3214 61.5923C18.9042 63.1249 19.8073 63.0474 20.3045 63.5263C19.675 64.9084 19.374 65.4831 19.447 67.3669C19.5336 69.6247 21.6364 71.9966 23.9033 72.5394C25.8237 73.0001 26.4075 72.4391 27.9903 72.1654C28.0085 74.113 28.2229 74.9432 29.2994 76.0197C31.4112 78.1315 34.1434 78.6561 36.9167 77.274C38.0297 76.7221 39.1609 75.7642 39.8907 75.08C40.3787 76.2158 40.3149 76.6583 41.0584 77.6298C41.551 78.2729 42.2534 78.9252 43.0927 79.3175C44.9856 80.1978 47.581 80.1887 48.8308 78.7245L48.8354 78.7154Z" fill="#1CA2A5"/>
</g>
<defs>
<clipPath id="clip0_1836_33129">
<rect width="72" height="61.062" fill="white" transform="translate(14 19.4688)"/>
</clipPath>
</defs>
</svg>
