<svg width="100" height="100" viewBox="0 0 100 100" fill="none" xmlns="http://www.w3.org/2000/svg">
<rect width="100" height="100" rx="8" fill="#1CA2A5" fill-opacity="0.1"/>
<path fill-rule="evenodd" clip-rule="evenodd" d="M73.1447 52.4471C73.9354 52.8961 75.3776 53.6232 74.5115 55.1687C73.9036 56.2533 72.7276 57.3539 71.7343 58.1922C69.6008 59.992 67.3758 62.1096 65.4132 64.1081C64.2491 65.292 65.6198 66.7541 66.8713 65.6933C67.8963 64.8272 68.977 63.6631 69.9822 62.7215C71.8058 61.0091 74.5949 58.9033 75.9696 56.9168C76.7642 55.7646 77.0661 54.7952 76.7999 53.7463C76.4265 52.2803 76.6609 53.3133 76.6609 52.1968C76.6609 51.6525 76.7364 51.1956 76.7284 50.6434C76.7205 50.0593 76.6251 49.6302 76.6649 49.0224L76.5973 42.7489C76.498 41.1637 76.4026 39.8367 76.9906 38.0885C77.3085 37.1429 78.3852 35.5776 79.4897 35.9033C80.7054 36.2609 80.8961 37.0158 80.9955 38.4938L80.9478 44.7712C80.7849 46.9643 80.9001 48.9191 80.9081 51.0446C80.916 53.3967 80.9875 54.8707 80.7531 57.3221C80.6498 58.3869 80.3995 59.404 79.438 60.4369C76.8118 63.2499 73.0613 66.6389 70.1848 69.1379C69.1121 70.0716 68.0672 70.89 67.0302 71.927C66.2912 72.67 66.2554 72.4515 65.4569 72.4316C64.9404 72.4197 64.4437 72.4435 63.9034 72.4991C63.2796 72.5627 62.9022 72.6263 62.2864 72.6461C61.2613 72.6819 59.7158 72.4594 59.1874 72.9918C58.7503 73.4328 58.8258 74.1082 59.3781 74.4737C60.5263 75.2326 64.9443 74.4181 65.6039 74.6684C65.4012 75.4233 66.0846 83.1787 65.8025 83.7945C64.992 83.6873 64.114 83.7429 63.2478 83.6833L59.4695 83.7667C59.2112 83.7389 59.0483 83.7031 58.7941 83.7071C58.5596 83.7071 58.4126 83.7469 58.1901 83.7469L56.299 83.7786C55.9613 83.7906 55.9811 83.8223 55.6752 83.719C55.703 83.1112 55.8619 82.5629 55.9374 81.9471C56.1559 80.1711 55.6553 71.9072 55.8381 70.1391C56.2513 66.182 56.0526 66.5475 59.5728 63.8657C61.8851 62.1017 64.2371 60.0794 66.3985 58.0571C67.495 57.032 68.6591 56.1977 69.7756 55.2283C70.7212 54.4138 72.1594 53.0987 73.1447 52.4392V52.4471ZM56.597 63.5717L56.2275 63.9134C53.7205 66.0032 54.0463 67.5209 53.7244 69.7458L53.5139 72.7177C53.4304 73.7824 53.9032 81.3352 53.7522 82.4278C53.6052 83.5164 53.3669 84.466 54.0343 85.3996C54.5151 86.0751 54.972 85.9082 55.4885 85.932L61.4282 85.9797C61.9685 85.9598 62.3817 85.8685 62.9141 85.9161C63.4386 85.9638 63.8597 85.9042 64.3961 85.9638C64.9523 86.0274 65.3258 85.9638 65.882 85.9956C67.8327 86.1029 68.1864 84.1998 68.1744 82.6185C68.1546 80.2744 67.8407 74.2513 68.7465 73.3692C69.2432 72.8806 69.716 72.4316 70.2364 71.9946C74.2453 68.6135 78.3971 65.006 81.7146 60.9534C83.4588 58.8239 83.137 54.6522 83.125 52.0578C83.1211 51.0526 83.0933 50.0871 83.1211 49.0899L83.1409 46.122C83.129 45.5658 83.2403 45.2996 83.2005 44.6361C83.0932 42.7092 83.4031 39.1454 83.0337 37.2144C82.5728 34.7909 80.3399 33.1103 78.2143 33.885C74.4558 35.2557 74.2214 39.5983 74.3684 42.8125L74.6823 50.9572C74.1221 50.9215 73.4864 50.2302 72.4057 50.699C70.8125 51.3903 66.9547 54.6641 65.6595 55.8362C62.6439 58.5776 59.68 61.017 56.597 63.5677V63.5717Z" fill="#1CA2A5"/>
<path fill-rule="evenodd" clip-rule="evenodd" d="M26.8616 52.4471C26.0709 52.8961 24.6287 53.6232 25.4948 55.1687C26.1027 56.2533 27.2787 57.3539 28.272 58.1922C30.4055 59.992 32.6304 62.1096 34.5931 64.1081C35.7572 65.292 34.3865 66.7541 33.135 65.6933C32.11 64.8272 31.0293 63.6631 30.0241 62.7215C28.2005 61.0091 25.4114 58.9033 24.0367 56.9168C23.2421 55.7646 22.9402 54.7952 23.2063 53.7463C23.5798 52.2803 23.3454 53.3133 23.3454 52.1968C23.3454 51.6525 23.2699 51.1956 23.2779 50.6434C23.2858 50.0593 23.3812 49.6302 23.3414 49.0224L23.409 42.7489C23.5083 41.1637 23.6037 39.8367 23.0156 38.0885C22.6978 37.1429 21.6211 35.5776 20.5166 35.9033C19.3008 36.2609 19.1101 37.0158 19.0108 38.4938L19.0585 44.7712C19.2214 46.9643 19.1062 48.9191 19.0982 51.0446C19.0903 53.3967 19.0187 54.8707 19.2532 57.3221C19.3565 58.3869 19.6068 59.404 20.5682 60.4369C23.1944 63.2499 26.945 66.6389 29.8215 69.1379C30.8942 70.0716 31.9391 70.89 32.9761 71.927C33.7151 72.67 33.7508 72.4515 34.5494 72.4316C35.0659 72.4197 35.5625 72.4435 36.1029 72.4991C36.7267 72.5627 37.1041 72.6263 37.7199 72.6461C38.745 72.6819 40.2905 72.4594 40.8189 72.9918C41.2559 73.4328 41.1804 74.1082 40.6282 74.4737C39.48 75.2326 35.0619 74.4181 34.4024 74.6684C34.605 75.4233 33.9217 83.1787 34.2038 83.7945C35.0143 83.6873 35.8923 83.7429 36.7584 83.6833L40.5368 83.7667C40.7951 83.7389 40.958 83.7031 41.2122 83.7071C41.4466 83.7071 41.5936 83.7469 41.8161 83.7469L43.7073 83.7786C44.045 83.7906 44.0252 83.8223 44.3311 83.719C44.3033 83.1112 44.1443 82.5629 44.0689 81.9471C43.8503 80.1711 44.3509 71.9072 44.1682 70.1391C43.755 66.182 43.9536 66.5475 40.4335 63.8657C38.1212 62.1017 35.7691 60.0794 33.6078 58.0571C32.5112 57.032 31.3471 56.1977 30.2307 55.2283C29.2851 54.4138 27.8469 53.0987 26.8616 52.4392V52.4471ZM43.4093 63.5717L43.7788 63.9134C46.2858 66.0032 45.96 67.5209 46.2818 69.7458L46.4924 72.7177C46.5759 73.7824 46.1031 81.3352 46.254 82.4278C46.401 83.5164 46.6394 84.466 45.9719 85.3996C45.4912 86.0751 45.0343 85.9082 44.5178 85.932L38.5781 85.9797C38.0378 85.9598 37.6246 85.8685 37.0922 85.9161C36.5677 85.9638 36.1466 85.9042 35.6102 85.9638C35.054 86.0274 34.6805 85.9638 34.1243 85.9956C32.1735 86.1029 31.8199 84.1998 31.8318 82.6185C31.8517 80.2744 32.1656 74.2513 31.2597 73.3692C30.7631 72.8806 30.2903 72.4316 29.7698 71.9946C25.761 68.6135 21.6092 65.006 18.2917 60.9534C16.5475 58.8239 16.8693 54.6522 16.8812 52.0578C16.8852 51.0526 16.913 50.0871 16.8852 49.0899L16.8654 46.122C16.8773 45.5658 16.766 45.2996 16.8058 44.6361C16.913 42.7092 16.6031 39.1454 16.9726 37.2144C17.4335 34.7909 19.6664 33.1103 21.7919 33.885C25.5505 35.2557 25.7849 39.5983 25.6379 42.8125L25.324 50.9572C25.8842 50.9215 26.5199 50.2302 27.6005 50.699C29.1937 51.3903 33.0516 54.6641 34.3468 55.8362C37.3623 58.5776 40.3262 61.017 43.4093 63.5677V63.5717Z" fill="#1CA2A5"/>
<path fill-rule="evenodd" clip-rule="evenodd" d="M41.1542 38.622C42.0901 38.622 50.6426 38.7684 51.3202 38.5818C51.6331 38.4957 51.8628 38.1253 51.6762 37.7263C51.4235 37.1923 50.034 37.3128 49.3421 37.2956L41.9064 37.2324C41.2776 37.2353 41.1398 37.3674 40.8125 36.9425C39.9197 35.7797 39.9426 36.219 39.8967 35.0218C39.8594 34.1088 39.8766 33.216 39.8307 32.3145C40.6518 32.3576 41.1685 32.3748 41.981 32.3317C41.9753 33.0322 41.8777 34.2065 42.4576 34.4677C42.8394 34.6371 43.1897 34.4017 43.3074 34.149C43.471 33.7988 43.3705 33.2763 43.339 32.8916C43.2643 31.9872 43.2299 31.347 42.5121 31.1058C42.314 31.0398 40.5168 31.1058 40.112 31.1058C39.179 31.1058 38.5474 31.0369 38.4727 32.0618C38.4211 32.7738 38.4526 33.9366 38.4842 34.6687C38.4986 35.0275 38.5187 35.5214 38.579 35.8601C38.6794 36.42 38.8459 36.2793 39.0756 36.6812C39.3484 37.1578 40.0029 38.0449 39.9943 38.2258C39.9139 39.9455 39.9513 41.6422 39.9197 43.3706C39.8479 47.5622 39.7503 52.0236 39.9915 56.198C40.0345 56.9559 39.7273 57.9924 40.1695 58.5292C40.4077 58.8192 40.8527 58.9053 41.2288 58.9139C47.0597 59.0288 52.9422 59.0288 58.7731 58.9139C59.1492 58.9053 59.5942 58.8192 59.8325 58.5292C60.2746 57.9924 59.9674 56.9559 60.0105 56.198C60.2516 52.0236 60.154 47.5622 60.0823 43.3706C60.0536 41.6451 60.088 39.9484 60.0076 38.2258C59.999 38.0449 60.6564 37.1607 60.9263 36.6812C61.156 36.2793 61.3225 36.42 61.423 35.8601C61.4833 35.5242 61.5034 35.0275 61.5177 34.6687C61.5493 33.9395 61.578 32.7738 61.5292 32.0618C61.4574 31.0369 60.823 31.1087 59.8899 31.1058C59.4851 31.1058 57.685 31.0369 57.4898 31.1058C56.7721 31.347 56.7376 31.9872 56.663 32.8916C56.6314 33.2763 56.5309 33.7988 56.6946 34.149C56.8123 34.3988 57.1625 34.6371 57.5444 34.4677C58.1243 34.2093 58.0267 33.0351 58.0209 32.3317C58.8334 32.3748 59.3502 32.3576 60.1713 32.3145C60.1225 33.216 60.1397 34.1088 60.1052 35.0218C60.0593 36.219 60.0823 35.7797 59.1894 36.9425C58.8621 37.3674 58.7272 37.2353 58.0956 37.2324L56.2926 37.2956C55.6007 37.3128 54.2112 37.1923 53.9586 37.7263C53.7691 38.1253 53.9987 38.4957 54.3145 38.5818C54.9921 38.7684 57.9118 38.6249 58.8478 38.622C58.7128 40.1092 58.7329 41.8547 58.776 43.3677C58.8707 46.5889 58.7214 49.7814 58.7214 52.9538C58.7214 54.5587 58.5434 56.0372 58.532 57.5933C52.9451 57.5301 47.0482 57.5301 41.4614 57.5933C41.4528 56.0372 41.2719 54.5587 41.2719 52.9538C41.2719 49.7814 41.1226 46.5889 41.2173 43.3677C41.2604 41.8576 41.2805 40.112 41.1456 38.622H41.1542Z" fill="#1CA2A5" stroke="#1CA2A5" stroke-width="0.810699"/>
<path fill-rule="evenodd" clip-rule="evenodd" d="M49.6151 22.1515C49.6209 22.1257 49.6381 22.1257 49.6524 22.1113C49.9137 22.6568 50.5625 23.6473 50.7003 24.2014L48.5471 24.2617L49.6151 22.1515ZM46.8188 25.4703C47.0083 25.5593 47.1777 25.6828 47.4303 25.7086C47.683 25.7345 47.9988 25.7144 48.2572 25.7144L51.3807 25.6742C52.2018 25.6627 52.6296 25.4072 52.4085 24.5459C51.8831 23.7104 51.3635 22.3898 50.6085 21.1581C50.2553 20.5811 50.4333 20.805 50.4563 20.1303C50.4793 19.404 50.3214 16.4699 50.3989 16.4038C50.9128 16.1856 51.263 16.7598 51.7425 16.9895C53.4995 17.8336 54.467 15.8182 53.0889 15.7808C52.7444 15.7722 52.5205 15.956 52.2076 15.7694C51.7482 15.4937 51.1568 14.6095 49.9539 15.198C49.4342 15.4535 48.9806 15.5971 49.0467 16.3694C49.1615 17.713 49.0065 19.1772 49.1098 20.5409C48.9634 20.739 48.8773 20.7706 48.7022 21.049C48.5672 21.2615 48.5069 21.4022 48.3806 21.6232C48.1567 22.0166 47.9787 22.4644 47.8007 22.9066C47.1117 24.6291 46.7241 24.3707 46.8188 25.4703Z" fill="#1CA2A5" stroke="#1CA2A5" stroke-width="0.810699"/>
<path fill-rule="evenodd" clip-rule="evenodd" d="M49.2425 43.1726C49.3057 42.854 49.2282 42.5956 49.5124 42.5468C51.1546 42.2769 49.9402 44.0598 51.166 44.0971C52.3029 44.1316 51.7431 42.4721 51.4043 42.0214C51.0742 41.5821 49.877 41.1084 49.1018 41.4386C47.4711 42.2855 47.8358 46.3049 47.8903 47.5767C47.9391 48.6906 47.0089 49.305 50.0464 49.0007C50.3995 48.9662 51.1632 48.9462 51.4675 48.8371C51.835 48.705 52.056 48.26 51.789 47.8552C51.4417 47.3327 49.7449 47.6169 49.0272 47.6801L49.2483 43.1755L49.2425 43.1726Z" fill="#1CA2A5" stroke="#1CA2A5" stroke-width="0.810699"/>
<path fill-rule="evenodd" clip-rule="evenodd" d="M48.1098 32.3924C48.1098 33.0986 47.9491 34.1063 48.5032 34.3475C48.8821 34.514 49.1951 34.3015 49.3156 34.092C49.4707 33.8221 49.419 33.4173 49.4104 33.0871C49.3443 30.4545 49.3673 31.2153 46.9299 31.043C46.4619 31.0114 45.2705 31.0889 44.9087 31.2698C44.3661 31.5397 44.4149 32.3924 44.458 33.09C44.4953 33.7159 44.6791 34.6001 45.4858 34.1953C46.0514 33.914 45.7729 32.9981 45.7729 32.3407C46.6514 32.289 47.2888 32.3924 48.1127 32.3895L48.1098 32.3924Z" fill="#1CA2A5" stroke="#1CA2A5" stroke-width="0.810699"/>
<path fill-rule="evenodd" clip-rule="evenodd" d="M51.3849 25.6713C51.3418 26.2971 51.3504 29.3719 51.7294 29.9002C51.9533 30.2131 52.4328 30.2648 52.7256 29.9662C53.0356 29.6475 52.8519 29.1107 52.8146 28.6772C52.7715 28.1948 52.7572 27.7154 52.7486 27.2273C52.7399 26.5412 52.8175 24.9018 52.4127 24.543C52.6337 25.4043 52.2059 25.6598 51.3849 25.6713Z" fill="#1CA2A5" stroke="#1CA2A5" stroke-width="0.810699"/>
<path fill-rule="evenodd" clip-rule="evenodd" d="M48.2551 25.7118C47.9967 25.7118 47.6809 25.729 47.4283 25.7061C47.1756 25.6802 47.0034 25.5568 46.8167 25.4678C46.811 26.3664 46.8799 27.2277 46.8828 28.1234C46.8856 28.8612 46.7565 29.9924 47.5173 30.1015C48.502 30.2393 48.3355 29.0479 48.3326 28.2612C48.3326 27.3971 48.2694 26.5616 48.258 25.7118H48.2551Z" fill="#1CA2A5" stroke="#1CA2A5" stroke-width="0.810699"/>
<path fill-rule="evenodd" clip-rule="evenodd" d="M54.2505 32.3924C54.2505 33.0986 54.0897 34.1063 54.6438 34.3475C55.0227 34.514 55.3357 34.3015 55.4563 34.092C55.6113 33.8221 55.5596 33.4173 55.551 33.0871C55.485 30.4545 55.5079 31.2153 53.0705 31.043C52.6025 31.0114 51.4111 31.0889 51.0494 31.2698C50.5068 31.5397 50.5556 32.3924 50.5986 33.09C50.636 33.7159 50.8197 34.6001 51.6264 34.1953C52.192 33.914 51.9135 32.9981 51.9135 32.3407C52.792 32.289 53.4294 32.3924 54.2533 32.3895L54.2505 32.3924Z" fill="#1CA2A5" stroke="#1CA2A5" stroke-width="0.810699"/>
</svg>
