<svg width="100" height="100" viewBox="0 0 100 100" fill="none" xmlns="http://www.w3.org/2000/svg">
<rect width="100" height="100" rx="8" fill="#1CA2A5" fill-opacity="0.1"/>
<g clip-path="url(#clip0_1836_35300)">
<path fill-rule="evenodd" clip-rule="evenodd" d="M26.6019 55.3711L29.0334 55.3438L47.8674 55.1029C48.1538 54.9893 48.6991 54.6075 49.0673 54.3803C49.4945 54.1167 49.8672 53.9213 50.3353 53.6713C51.4624 53.0805 52.0805 53.0077 53.2349 52.5987C47.1448 52.5351 41.1092 52.6896 35.0418 52.7123C32.0103 52.7214 29.0062 52.8805 25.9793 52.8623C22.966 52.8487 19.9164 52.785 16.9168 52.9396C16.8668 49.9581 16.7259 46.9403 16.6077 43.9589C16.4896 40.9275 16.6759 37.8278 16.5668 34.7873C16.4578 31.715 16.435 28.7108 16.4396 25.6157C16.4396 23.9887 16.4487 17.9485 16.2896 16.6851L24.7749 16.776C27.5291 16.7987 30.2742 16.9805 33.0738 16.9896C35.878 16.9941 38.7868 17.0259 41.5909 17.1214C44.3951 17.2168 47.1221 17.0623 49.8853 17.135C58.2707 17.3532 70.66 17.8349 79.0362 16.8759C80.3497 16.726 81.5268 16.4533 82.8948 16.4351C82.8266 17.9894 82.9266 19.4892 82.9584 21.03C82.9857 22.5298 82.913 24.0114 82.8857 25.5067C82.8267 28.5426 82.7812 31.5241 82.7539 34.5692C82.7039 40.6184 82.4176 46.6267 82.5449 52.7032C80.8042 52.7214 79.0271 52.626 77.291 52.7214C75.6821 52.8078 74.0505 52.9759 72.428 53.0441C72.2325 53.4304 72.2734 54.8621 72.3598 55.412C74.2277 55.3711 76.1002 55.2211 77.9409 55.1984C85.0355 55.0984 85.0673 56.3028 84.9946 50.9489C84.9718 49.081 85.0582 47.1494 85.0718 45.2724C85.1309 37.8687 85.2991 30.397 85.5036 22.9979C85.5581 21.0936 85.4263 19.2029 85.3763 17.3259C85.3127 14.9535 85.7036 14.0763 82.963 14.0036C81.3268 13.9581 79.3816 14.3581 77.7273 14.5126C68.9875 15.3216 58.8297 14.6671 49.9944 14.5262C48.0992 14.4944 46.2131 14.5944 44.3133 14.5944C42.4681 14.5944 40.6002 14.499 38.7458 14.4717C35.8826 14.4353 19.0483 14.0581 16.5714 14.3354C13.699 14.6626 14.0126 14.5126 14.0081 17.435C14.0081 19.2893 14.0717 21.1436 14.0808 23.0024C14.099 26.7111 14.0444 30.5742 14.2717 34.251C14.4989 37.9642 14.149 41.8001 14.3626 45.5178C14.4671 47.3403 14.4807 49.2309 14.5216 51.058C14.5398 51.8806 14.7625 52.9987 14.458 53.6213C14.0399 54.4757 14.458 55.1075 15.3352 55.2665C16.2669 55.4347 24.9021 55.362 26.6019 55.3665V55.3711Z" fill="#1CA2A5"/>
<path fill-rule="evenodd" clip-rule="evenodd" d="M53.2294 52.6035C52.075 53.0125 51.4569 53.0853 50.3298 53.6761C49.8616 53.9215 49.489 54.1169 49.0617 54.3851C48.6936 54.6123 48.1528 54.9941 47.8619 55.1077L45.194 57.6211C44.5123 58.3619 43.7079 59.6435 43.2443 60.6888C40.7946 66.1972 43.8988 67.9652 44.5305 65.1383C44.7032 64.3747 44.6987 63.6612 44.9304 62.9249C45.8258 60.0344 48.1937 57.4756 50.7433 56.1758C52.4477 55.3077 52.4295 55.135 54.6928 55.0941C55.9791 55.0714 58.5105 54.726 59.4422 55.2668C60.9057 56.1167 61.2602 57.362 61.7874 57.9483C62.2464 58.4664 63.11 58.5391 63.5781 57.9846C64.1553 57.2984 63.719 56.7575 63.5099 56.1167C63.4054 55.7986 63.5372 54.3169 63.5326 53.7943C63.4872 49.8175 61.592 43.2956 66.3505 39.7915C67.0504 39.2779 68.682 38.2599 69.7319 38.2099C69.7091 40.9959 69.8546 43.7228 69.8773 46.4815C69.8864 47.9041 69.85 49.3221 69.85 50.7401C69.85 52.0899 69.9682 53.4716 69.9636 54.776C69.9546 56.1667 69.8546 57.512 69.8682 58.9254C69.8818 60.2844 70.0773 61.6296 70.0136 62.9658C69.9046 65.2292 68.8865 71.5148 67.8185 73.4554C67.6276 73.8054 67.2049 74.4235 67.1822 74.878C67.1504 75.5097 67.5503 75.9324 68.0548 76.0142C70.8544 76.4914 72.1543 64.9474 72.3315 63.5567C72.5451 61.8614 71.9179 56.5757 72.377 55.4122C72.2906 54.8669 72.2543 53.4307 72.4452 53.0444C72.1725 52.7353 72.2679 50.5356 72.3679 50.2084L72.3952 46.3134C71.468 39.2143 73.8132 34.3785 68.7365 35.942C65.3824 36.9737 62.1555 39.6051 61.2693 43.3229C60.6466 45.9453 60.7148 49.5721 61.1057 52.3263C60.0649 52.5171 58.2651 52.4308 57.2153 52.349C55.6927 52.2354 54.6474 52.4717 53.2385 52.5944L53.2294 52.6035Z" fill="#1CA2A5"/>
<path fill-rule="evenodd" clip-rule="evenodd" d="M59.1134 35.9964C58.6134 39.2142 58.0044 40.8685 55.7274 43.15C53.3914 45.4861 53.6141 45.5452 50.5554 45.8588C49.1965 45.9951 46.7968 45.9179 45.3924 45.8542C43.9153 45.786 44.438 45.727 43.4881 45.1316C42.9336 44.7816 42.2837 44.6089 41.7201 44.2771C39.2886 42.841 39.6931 42.191 39.3477 41.3003C38.4478 38.9778 37.7797 39.1732 38.0251 34.692C38.1569 32.2787 39.8295 28.4973 41.0702 27.2929C41.611 26.7703 43.3017 25.4477 44.3471 25.3568C45.1333 25.2841 44.6516 25.6159 46.615 25.1932C48.7738 24.7296 51.1417 25.3568 53.2323 26.1113C54.1867 26.4567 55.7956 27.5838 56.3683 28.3246C57.0091 29.1472 58.1135 30.4153 58.4953 31.4379C58.9816 32.7377 59.3497 34.4829 59.1088 36.0055L59.1134 35.9964ZM46.9376 22.8571C45.1788 23.2298 43.5744 23.6343 42.1746 24.4615C40.5566 25.4159 39.734 25.9613 38.7932 27.4156C36.1436 31.5288 34.4847 37.2417 37.4252 42.1229C37.7206 42.6137 37.8842 42.4819 38.057 43.0182C38.3887 44.0408 39.1932 45.1679 40.0749 45.8042C40.7702 46.3042 41.3429 46.4678 42.1564 46.8905C42.97 47.3131 42.9745 47.7858 44.2425 47.954C45.8332 48.163 48.842 48.1812 50.4508 48.0403C52.0597 47.904 53.9822 47.3222 55.2502 46.4905C57.4863 45.0271 59.9087 41.9638 60.6905 39.2687C61.154 37.6689 61.6676 35.4737 61.4085 33.6376C61.1858 32.0696 60.4678 30.0199 59.7133 29.0063C58.977 28.0201 57.9272 26.2931 56.7864 25.6022C56.0774 25.1705 55.6002 24.7296 54.8776 24.3433C54.3913 24.0842 53.146 23.657 52.5506 23.5025C52.0915 23.3843 51.687 23.3843 51.2144 23.3071C50.0327 23.1116 48.7056 22.4799 46.9286 22.8571H46.9376Z" fill="#1CA2A5"/>
<path fill-rule="evenodd" clip-rule="evenodd" d="M32.765 76.8867L29.0837 76.9776C27.4702 77.0957 26.9067 76.5685 26.8658 79.5545C26.8476 80.7316 26.7612 83.4722 26.934 84.5084C27.1885 86.0628 29.3246 86.1082 29.4291 84.2539C29.5154 82.7132 29.2246 80.9407 29.3882 79.3636C36.0646 79.2818 42.7683 79.5 49.4584 79.5045C56.1621 79.5091 62.8749 79.7909 69.5558 79.5409C69.6058 80.6998 69.674 81.8815 69.7422 83.0404C69.8058 84.0767 69.5058 85.4901 70.5284 85.8855C71.7556 86.3582 72.2237 85.2629 72.2146 84.1358C72.2055 82.9723 72.1101 81.7861 72.0328 80.6362C71.7601 76.4004 71.2284 76.9639 68.5605 77.0503C66.2199 77.1276 63.9338 77.0367 61.575 77.0548C56.7666 77.0912 51.9944 76.914 47.1632 76.9867C42.4229 77.0594 37.5235 76.923 32.7696 76.873L32.765 76.8867Z" fill="#1CA2A5"/>
<path fill-rule="evenodd" clip-rule="evenodd" d="M29.0798 76.9819L32.7612 76.891C32.4839 76.4093 32.5884 76.2275 32.1294 75.9184C31.8022 75.7003 31.4795 75.6094 31.1614 75.3503C30.766 75.0276 30.1251 74.0596 29.907 73.4415C29.0525 71.0463 29.2571 64.3426 29.198 61.4339C29.1616 59.475 28.9298 57.2617 29.0253 55.3438L26.5938 55.371C26.7892 56.2073 26.7528 65.7106 26.7528 67.3286C26.7528 70.3191 26.7846 73.8232 28.5662 76.1957C28.8026 76.5138 29.0616 76.6865 29.0753 76.9774L29.0798 76.9819Z" fill="#1CA2A5"/>
<path fill-rule="evenodd" clip-rule="evenodd" d="M26.1137 18.735C24.373 19.6712 26.5773 22.9754 22.6551 24.9297C21.4688 25.5205 20.2008 25.5887 18.8555 25.9295C17.5603 26.2568 17.4557 28.1793 19.8554 28.0202C23.0641 27.8066 25.0093 26.6749 26.4091 24.9706C27.4681 23.6798 28.318 20.6802 27.6317 19.3804C27.409 18.9577 26.7818 18.3714 26.1092 18.735H26.1137Z" fill="#1CA2A5"/>
<path fill-rule="evenodd" clip-rule="evenodd" d="M19.8133 41.8908C18.3544 42.2953 18.6634 43.8997 20.0996 44.1633C21.6312 44.4451 22.3993 44.5996 23.2401 45.4995C25.1262 47.5219 24.9172 49.049 25.1762 50.1171C25.5807 51.7941 28.2486 51.1306 27.1305 47.6128C26.7806 46.513 26.1806 45.4767 25.5944 44.6723C25.0035 43.8588 24.2854 43.1634 23.2856 42.6135C22.5947 42.2317 20.7041 41.6409 19.8087 41.8908H19.8133Z" fill="#1CA2A5"/>
<path fill-rule="evenodd" clip-rule="evenodd" d="M72.2558 19.3526C71.115 19.7798 71.6922 21.7204 72.0422 22.6794C73.0239 25.3427 77.3051 28.815 79.7957 28.0151C80.3411 27.8424 80.8365 27.2516 80.3139 26.638C80.0321 26.3017 79.1367 26.2608 78.6413 26.1244C77.3324 25.7654 76.7643 25.0746 75.9099 24.3837C75.2054 23.8111 74.3282 23.0385 73.9601 21.9613C73.6329 20.9933 73.7465 18.789 72.2512 19.3526H72.2558Z" fill="#1CA2A5"/>
<path fill-rule="evenodd" clip-rule="evenodd" d="M72.3866 46.3269L72.3594 50.2219C73.6819 49.6265 73.5501 47.1859 77.9678 44.968C79.3721 44.2635 80.0266 44.5226 80.4902 43.7818C81.1174 42.7774 80.2038 41.8638 79.0403 41.982C76.9452 42.1956 74.2137 44.3135 72.8275 45.8361C72.6321 46.0497 72.6184 46.1315 72.3912 46.3269H72.3866Z" fill="#1CA2A5"/>
</g>
<defs>
<clipPath id="clip0_1836_35300">
<rect width="72" height="72" fill="white" transform="translate(14 14)"/>
</clipPath>
</defs>
</svg>
