<svg width="100" height="100" viewBox="0 0 100 100" fill="none" xmlns="http://www.w3.org/2000/svg">
<rect width="100" height="100" rx="8" fill="#1CA2A5" fill-opacity="0.1"/>
<g clip-path="url(#clip0_1836_33482)">
<path fill-rule="evenodd" clip-rule="evenodd" d="M74.2638 71.9688C74.951 71.3285 75.523 70.4577 76.2316 70.0522L77.572 71.3456C78.0202 71.7639 78.4343 72.1268 78.8953 72.5878C79.3947 73.0872 79.6466 73.369 80.0948 73.9538C80.4662 74.4404 80.7991 74.9825 81.2473 75.3454C81.2388 76.0113 81.1876 76.754 80.9016 77.2663C80.1503 78.6067 77.4183 79.7464 76.539 78.5383C76.3042 78.2182 72.8508 75.0252 72.3258 73.9282L74.2723 71.9731L74.2638 71.9688ZM67.1735 71.8749C67.3826 71.5078 67.7711 71.3243 68.0784 71.0169C68.4327 70.6669 68.548 70.5346 68.9322 70.2315C70.7378 68.81 70.772 68.524 72.3172 66.9531C72.6715 66.5903 73.6405 65.4804 73.965 65.3011C74.5071 65.5914 75.6084 66.9147 75.9328 67.5721L74.1442 69.1899C73.5936 69.7363 73.1112 70.2571 72.5221 70.8504C71.5147 71.8664 70.1957 73.0702 69.3761 74.2526C68.8852 74.0477 68.5949 73.5653 68.2364 73.1C67.8992 72.6604 67.3912 72.2463 67.1735 71.8835V71.8749ZM64.0232 65.7237C64.7232 65.0792 65.6453 64.4474 66.3624 63.8626C67.2887 63.107 67.8138 62.0826 68.326 61.6984C68.8938 62.3301 70.9726 64.6438 71.2074 65.1091C70.9982 65.5188 70.5287 65.903 70.1701 66.236C69.5554 66.7995 68.3431 68.3618 66.9942 69.1942L64.0274 65.728L64.0232 65.7237ZM52.0025 32.2444C52.8264 32.1035 56.2712 33.0042 57.6159 33.2561C58.5507 33.4311 61.748 35.1172 62.1578 35.4843C62.5035 35.7917 62.9261 36.321 63.3146 36.5814C63.6433 36.8034 63.8524 36.7479 64.1342 36.8973C64.2366 36.9528 64.5568 37.243 64.7617 37.3924C66.1319 38.3785 67.8479 40.7178 68.5907 42.5832C69.359 44.5084 69.2182 43.9748 69.6365 46.0494C70.1573 48.6447 69.9054 47.616 70.0676 50.1302C70.0975 50.5699 70.1103 50.6937 70.3024 51.0266C70.947 52.1536 69.9652 51.0266 69.7816 53.5153C69.6194 55.7265 68.437 58.181 67.1009 59.8756C65.0946 62.4198 64.9879 62.3557 62.4993 64.298C61.4961 65.0792 61.1674 65.6256 59.7545 66.061C59.1526 66.2488 58.7087 66.4878 58.2178 66.7824C57.3768 67.2861 53.6246 67.8965 52.5319 67.8922C51.6098 67.8922 51.2811 67.7215 50.4829 67.6489C49.8042 67.5892 49.1084 67.5422 48.4297 67.4568L44.6647 66.7055C44.2677 66.586 44.1097 66.6202 43.8536 66.3854C42.6498 65.2883 43.4737 65.9543 41.937 64.917C39.7599 63.4528 40.6564 63.662 39.6404 62.7015L37.4805 60.3495C36.0248 58.6889 36.7548 59.2055 35.8327 57.4852C35.2181 56.3326 34.2533 51.7352 34.0356 50.2583C33.6813 47.8422 35.3973 41.8746 37.203 40.0177C37.9329 39.2664 38.4921 38.2931 39.3203 37.6272C40.3704 36.7778 39.7813 36.9656 40.4557 36.5046C42.4834 35.1258 41.2284 35.4118 42.3126 34.9806C43.4139 34.5452 44.0329 34.0714 44.5964 33.875C45.6934 33.4909 46.9399 33.175 48.0796 32.842C48.8138 32.6286 49.2834 32.6371 50.0731 32.5774C50.786 32.5219 51.3068 32.3469 52.0068 32.2273L52.0025 32.2444ZM69.5682 59.9781C70.5415 58.07 71.8007 55.8887 71.8904 53.2122C71.9203 52.367 71.7922 52.0383 71.8904 51.1504C71.98 50.3052 71.9245 49.8143 71.741 49.0716C71.7154 48.9734 71.4934 46.3012 71.2501 45.0505C70.9811 43.6503 70.6439 42.835 70.1829 41.6099C69.7603 40.483 69.1456 39.7146 68.5437 38.7371C68.0358 37.909 67.0411 36.9272 66.388 36.3765C65.4276 35.574 65.4319 35.8002 64.9794 35.527C64.6165 35.3093 64.8769 35.2325 64.4671 34.9166C64.164 34.6818 64.1043 34.7501 63.8012 34.4556C62.6017 33.2902 62.6359 33.5336 61.0009 32.6371C60.0618 32.1206 59.0331 31.5828 57.825 31.2968C56.6042 31.0065 55.4303 30.6394 54.1369 30.4772C51.0933 30.1015 52.6898 30.1613 50.1798 30.5583C49.5352 30.6607 48.7583 30.6223 48.1266 30.7632C47.0295 31.0108 43.6871 31.9627 43.0084 32.4066C42.0906 33.0085 41.2412 33.6787 40.3319 34.2422C39.1538 34.9721 39.6233 34.8398 39.1666 35.3307C38.9532 35.5612 38.7653 35.5228 38.4452 35.7405C37.4207 36.4405 36.4901 37.862 35.7004 38.7414C33.4722 41.23 32.3452 45.345 32.3367 48.9051C32.3367 49.6521 32.1403 50.1985 32.1446 50.9541C32.1446 51.7481 32.6483 53.9336 32.8874 54.702C33.8094 57.6901 32.9983 56.0978 34.6717 59.6835C35.4614 61.3782 35.8754 61.2886 36.6353 62.2277C37.0365 62.7186 37.1347 63.1284 37.6341 63.5894C38.0866 64.0077 38.3086 64.1699 38.7184 64.759C39.3544 65.6768 41.7449 67.4056 42.4919 67.7471C43.0212 67.9862 43.5505 68.1398 44.0927 68.4087L47.768 69.2582C48.4382 69.3393 49.1041 69.3863 49.8042 69.4589C50.231 69.5058 50.4061 69.493 50.7817 69.6125C52.6813 70.2187 55.8572 69.604 57.7866 69.1259C58.8751 68.857 58.3586 68.4386 59.1142 68.2039C60.6765 67.7172 61.1077 67.7386 62.3669 66.9489C62.6615 67.2221 62.9091 67.6148 63.1524 67.905L65.641 70.6071C65.244 71.4907 64.4543 71.9091 65.3465 72.9933L67.0027 74.8203C68.7657 76.9717 68.8596 76.8608 70.0762 76.1948C70.6226 75.896 70.5842 75.8576 70.9555 75.4862C71.6001 76.4936 72.2788 77.1468 73.0173 77.9322C73.7046 78.6579 74.3107 79.4817 75.3907 79.9726C75.8944 80.2031 76.1036 80.5062 76.7994 80.8178C77.3756 81.0782 77.9946 81.2362 78.7416 81.0611C80.829 80.5617 83.0018 78.9097 83.1768 76.5918C83.3347 74.5044 83.1085 74.4447 82.1182 73.2494C81.7553 72.814 81.5419 72.4085 81.1492 71.9603C80.3467 71.0383 78.7587 69.5442 77.7726 68.7801C77.9605 68.2679 78.9636 68.0118 77.8196 66.4708C77.3116 65.7835 76.889 65.1645 76.3213 64.584C76.0182 64.2724 75.7151 64.0419 75.4377 63.726C75.1815 63.4315 74.9852 63.0174 74.6906 62.8296C73.632 62.1551 73.2009 63.3632 72.5051 63.6833C71.916 62.6375 69.8499 60.533 69.5639 59.9781H69.5682Z" fill="#1CA2A5"/>
<path fill-rule="evenodd" clip-rule="evenodd" d="M20.3459 49.1311C23.0053 49.1311 25.9208 49.3232 28.5375 49.1823C29.2291 49.1439 31.8458 49.4043 31.0817 47.7993C30.706 47.0053 28.64 47.1846 27.6112 47.159C26.2538 47.1248 24.8835 47.0779 23.5133 47.0693C22.8303 47.0693 22.1473 47.0608 21.4643 47.065C20.5295 47.0693 20.3246 47.2699 19.8422 46.6339C18.5146 44.9051 18.5488 45.5582 18.4805 43.7782C18.425 42.4207 18.4506 41.0931 18.3823 39.7528C19.6032 39.8168 20.3715 39.8424 21.5753 39.7784C21.5668 40.82 21.4216 42.5701 22.2839 42.9543C22.8516 43.2062 23.3767 42.8561 23.5517 42.4805C23.795 41.9597 23.6456 41.1828 23.5986 40.6108C23.3255 37.2684 22.6894 37.9471 18.8006 37.9557C16.1498 37.9642 16.1626 38.1478 16.3803 43.2531C16.5084 46.2455 16.7303 45.3149 17.2596 46.2455C17.6609 46.9541 18.6384 48.2731 18.6256 48.542C18.5061 51.099 18.5616 53.6218 18.5146 56.1915C18.472 58.7015 18.4037 61.2883 18.3951 63.7812C18.3866 66.3553 18.4506 68.8951 18.4591 71.4734C18.4591 72.7754 18.5488 73.9834 18.6256 75.2683C18.6897 76.3952 18.4805 77.7911 18.8903 78.7345C17.9384 79.2723 17.3834 80.0151 16.7047 80.6554C16.137 81.1932 16.2394 81.3085 16.1839 82.1921C16.1156 83.2678 15.7784 85.2271 16.2352 85.7266C16.662 86.1961 17.4261 86.051 17.7377 85.5772C18.0237 85.1375 17.9896 84.3862 18.0536 83.8569C18.1689 82.8879 17.8573 82.922 17.678 82.3159C18.2628 82.0085 18.7195 81.3554 19.2531 80.9414C19.9703 80.3779 20.3416 80.1389 20.474 79.3022C23.0864 79.3022 25.5836 79.2424 28.1918 79.426C30.7444 79.6053 33.3739 79.4729 35.9309 79.4516C38.5092 79.4303 41.1686 79.5498 43.7255 79.5156C46.8374 79.4729 46.2099 79.0973 47.8832 81.1591C48.2119 81.5646 48.5321 81.7652 48.865 82.1366C48.9846 82.4482 48.1906 86.3882 50.1542 85.4918C50.803 85.1973 50.7774 85.2656 51.6098 85.3467C54.0301 85.5814 59.9764 85.3082 62.6999 85.5217C63.2932 85.5686 63.3487 85.9144 63.9677 85.7607C65.2867 85.4363 64.7104 81.6457 64.5909 80.1004C64.45 78.3247 64.5098 71.2344 64.3092 70.5813C63.989 69.5354 62.8493 69.6507 62.623 70.8843C61.9742 74.3932 62.687 79.8059 62.7127 83.5026C60.6722 83.5069 58.9519 83.6435 56.8517 83.5624C55.7846 83.5197 54.9052 83.6178 53.8807 83.6776C52.7965 83.7416 51.8318 83.699 50.7603 83.699C50.7646 83.1867 50.8628 82.3671 50.6835 81.9445C50.5426 81.6116 50.5127 81.7439 50.3591 81.3512C50.2652 81.1079 50.2694 81.0182 50.1286 80.7621C49.7486 80.0791 48.9888 79.3449 48.5278 78.7558C48.7284 77.7057 48.7327 77.8039 48.6601 76.6001C48.5406 74.6707 48.8821 70.4361 48.0839 69.8812C47.435 69.433 46.7264 69.9025 46.5727 70.53C46.3593 71.4094 46.577 76.5617 46.688 77.4197C44.5622 77.5093 42.2443 77.2788 40.1398 77.3941C33.4593 77.7527 27.2356 77.2788 20.8325 77.3514C20.8197 75.0378 20.5508 72.8394 20.5508 70.4532C20.5508 65.7363 20.3288 60.9938 20.4697 56.2C20.5337 53.9504 20.5593 51.3594 20.363 49.1439L20.3459 49.1311Z" fill="#1CA2A5"/>
<path fill-rule="evenodd" clip-rule="evenodd" d="M50.7485 37.2552C51.7857 37.1144 54.2018 37.2937 55.2007 37.6181C56.8954 38.1687 55.5038 37.3534 57.4844 38.5145C57.8644 38.7365 58.1632 38.8218 58.5303 39.0139C59.6828 39.6201 60.3189 40.4354 61.1043 41.255C63.0892 43.3253 62.8459 44.4949 63.768 45.0499C64.4424 45.4511 64.8736 47.6666 65.0102 48.5246C65.3986 50.9321 64.5107 54.4709 63.2685 56.3619C62.8545 56.9937 62.5855 57.92 62.1074 58.381C60.4597 59.9647 60.8439 59.1493 60.2164 59.7726C59.7853 60.2037 59.1236 60.9251 58.4534 61.1898C57.8729 61.416 56.6563 61.8429 56.0374 61.9496C55.0385 62.1246 54.2744 61.9325 53.1347 62.2271C51.1625 62.7308 49.4593 62.671 47.5171 62.0222C46.4712 61.6721 46.6676 61.6423 45.4467 60.908C44.7509 60.4897 44.1064 60.1055 43.4917 59.6829C42.2239 58.8121 41.8909 57.6895 41.3915 56.8613C41.1951 56.5369 40.9689 56.2552 40.7939 55.9222C40.4694 55.2947 39.5005 51.9908 39.2529 51.1029C38.8815 49.7838 39.1248 49.4978 39.4364 48.3239C40.0426 46.0445 40.9988 43.5772 42.4288 41.78C43.1203 40.9092 45.0028 39.5475 46.1255 39.0182C47.0945 38.5615 46.531 38.2413 47.1329 37.9766L50.7442 37.2595L50.7485 37.2552ZM37.7759 48.7978C37.8912 49.4381 37.1655 50.0101 37.5283 51.9139C37.7503 53.0921 38.1259 53.7153 38.4077 54.7227C38.7406 55.9222 38.873 56.4003 39.4706 57.348C40.017 58.2102 40.1834 58.8121 40.8152 59.5933C42.0019 61.0617 43.0435 61.988 44.9388 62.846L47.628 63.8534C48.4178 64.0711 49.9203 64.37 50.7911 64.2974C52.0717 64.1907 52.8529 64.1053 54.0353 63.8406C55.2007 63.5802 55.9819 63.8364 57.3222 63.4266C61.2153 62.2484 60.4256 61.7362 61.8855 60.7074C62.6624 60.161 63.371 59.7 63.896 59.0298L65.262 56.6991C66.6536 54.1336 67.439 50.5778 66.8371 47.6111C66.7304 47.0946 66.6707 46.5994 66.5298 46.0743L65.4925 43.4192C65.0486 42.9155 64.9034 43.2912 64.5107 42.5569C64.0881 41.7672 63.5417 41.0159 63.038 40.4354L61.2665 38.5188C60.0883 37.6693 58.001 36.0856 56.5411 35.8636C56.016 35.7825 55.5465 35.5862 55.0598 35.5051C54.5391 35.4154 53.9969 35.4112 53.4633 35.3557C51.09 35.0953 49.0581 35.3386 47.0646 36.1539C46.0059 36.585 46.3176 36.7003 46.023 36.9522C45.9376 37.0247 44.9089 37.3577 44.6869 37.4687C43.8374 37.8827 43.2825 38.4078 42.5696 38.9371C41.1866 39.9616 40.1237 41.1952 39.3382 43.082C38.7492 44.4992 37.4856 47.1671 37.7802 48.7978H37.7759Z" fill="#1CA2A5"/>
<path fill-rule="evenodd" clip-rule="evenodd" d="M47.4195 46.9841C46.0663 46.4932 45.5797 46.8773 44.1283 46.903C43.2063 46.92 41.4049 46.9286 41.0036 47.5305C40.7262 47.9445 40.914 48.4696 41.4092 48.6446C41.8275 48.7897 44.4826 48.7428 45.0546 48.7001C45.6309 48.6574 46.173 48.5165 46.7536 48.5336C46.3608 49.891 46.4846 54.5653 46.4846 56.4904C46.4846 57.1222 46.4761 59.6535 46.6725 60.1017C46.8432 60.4902 47.3896 60.8103 47.9232 60.4987C48.397 60.2213 48.3287 59.6066 48.3287 58.9535C51.4235 59.1456 50.6423 58.9748 53.6646 58.9535C54.7659 58.9449 58.6675 58.8724 59.5084 58.4412C59.8243 58.279 60.0889 57.865 59.8627 57.3869C59.4486 56.499 56.5587 57.0795 55.9569 57.1265C55.0732 57.1905 54.2323 57.135 53.353 57.182C52.4907 57.2289 48.7983 57.5533 48.2946 57.4552L48.2561 51.6113L49.6563 51.7138C49.699 52.9474 48.8794 54.5482 51.829 54.1555C54.9751 53.7371 53.8695 54.053 54.3305 51.5174C54.911 51.3723 56.5417 51.5473 57.246 51.5601C57.1222 52.3968 56.8832 53.2163 57.5235 53.7627C58.2748 54.3988 58.2705 54.4244 59.4017 54.3732C62.7697 54.2195 61.3781 54.4201 62.1337 51.7778C62.2574 51.5985 63.1411 51.59 63.077 50.7661C63.0301 50.1642 62.5008 49.9295 61.8605 49.9295C60.4176 49.9252 60.2682 51.082 60.3067 52.4907L59.0901 52.6102C59.0858 50.971 59.6023 49.6605 56.6313 49.6605C51.9699 49.6605 52.734 50.4075 52.5334 52.1876L51.4449 52.4821C51.3595 51.304 51.7394 49.9593 49.5581 49.9252L48.175 49.7246L48.0683 49.0074C48.6446 48.5934 48.6873 48.3031 49.0074 47.7353C51.5473 43.2361 50.5655 45.8785 50.574 42.852C50.574 42.0708 50.6125 39.7444 50.3563 39.1809C50.113 38.6388 49.4172 38.6302 49.1611 39.0699C48.7129 39.8425 48.905 43.6118 48.8964 44.5039C48.8922 45.1229 47.9232 45.6693 47.4152 46.9841H47.4195Z" fill="#1CA2A5"/>
<path fill-rule="evenodd" clip-rule="evenodd" d="M40.3291 28.053C40.4102 27.6389 42.0408 24.2283 42.2756 23.9593C42.3311 24.0191 42.3354 24.0191 42.4207 24.1429C42.4677 24.2112 42.536 24.3392 42.5744 24.4075L44.3032 27.8438L40.3291 28.0487V28.053ZM38.1905 29.7263C38.4765 29.8715 38.6216 30.0678 38.9973 30.119C39.3345 30.1617 39.8595 30.1319 40.2181 30.1361C40.9822 30.1105 45.6009 29.9953 45.9211 29.8885C47.4962 29.3678 45.8442 26.4949 45.4515 25.7266L43.9447 22.8239C43.6544 22.3671 43.5178 22.4098 43.6117 21.8293C43.791 20.7151 43.7099 18.2009 43.5861 16.9032C43.4025 15.0036 44.8624 17.441 46.8901 17.2105C48.6616 17.0056 48.7171 15.2384 47.3084 15.2384C46.1004 15.2384 46.7364 15.6525 45.7631 14.8627C43.8422 13.3047 41.9298 14.6579 41.5072 15.836C41.3365 16.3141 41.4432 16.3483 41.5542 16.7026C41.7036 17.1849 41.8103 21.4835 41.4603 21.9274C41.0932 22.3884 40.8456 22.525 40.4657 23.191C39.9449 24.0959 39.5138 25.2143 39.057 26.1876C38.5917 27.1779 37.9898 28.4073 38.199 29.7221L38.1905 29.7263Z" fill="#1CA2A5"/>
<path fill-rule="evenodd" clip-rule="evenodd" d="M24.96 24.582C25.3528 25.393 26.309 26.8615 26.5181 27.6853L23.3209 27.775L24.96 24.582ZM20.7511 29.5721C21.0329 29.7044 21.2847 29.888 21.6646 29.9264C22.0403 29.9648 22.5098 29.9349 22.894 29.9349L27.5383 29.8752C28.7635 29.8495 29.3952 29.4824 29.0708 28.1933C28.2854 26.9426 27.517 24.9918 26.3943 23.1562C25.8693 22.2982 26.1339 22.6312 26.1681 21.628C26.2022 20.5523 25.9675 16.1855 26.0827 16.0873C26.8041 15.4555 28.5287 18.2558 30.5691 16.8813C31.3076 16.3818 31.2094 15.1909 30.0825 15.161C29.5702 15.1482 29.2373 15.4214 28.772 15.1439C28.089 14.7341 27.2096 13.4194 25.4211 14.2944C24.6484 14.6744 23.974 14.8878 24.0722 16.0361C24.2429 18.0338 24.0124 20.2108 24.1618 22.2385C23.9441 22.533 23.816 22.58 23.5557 22.994C23.0178 23.852 22.5995 24.7954 22.2153 25.7559C21.1908 28.3171 20.6145 27.9329 20.7554 29.5721H20.7511Z" fill="#1CA2A5"/>
<path fill-rule="evenodd" clip-rule="evenodd" d="M26.1739 59.9271C26.2123 59.0477 26.319 58.0958 26.366 57.2122C26.4513 55.6925 26.4343 55.9956 26.8995 54.9711C29.3754 54.9242 27.5356 57.2207 29.3583 57.2762C31.0487 57.3232 30.2163 54.8602 29.7126 54.19C29.2174 53.5369 27.4417 52.8325 26.2849 53.3234C24.6414 54.0192 24.5304 56.8024 24.4621 58.544C24.4451 58.9581 24.4621 59.3679 24.4835 59.782C24.556 61.4382 23.1773 62.3517 27.6893 61.8992C28.2143 61.848 29.3498 61.8181 29.8023 61.6559C30.3487 61.4595 30.6773 60.7936 30.2804 60.196C29.7638 59.4191 27.241 59.8417 26.1739 59.9314V59.9271Z" fill="#1CA2A5"/>
<path fill-rule="evenodd" clip-rule="evenodd" d="M30.6926 39.8681C30.6926 40.9182 30.4536 42.4165 31.2775 42.775C31.8409 43.0226 32.3062 42.7067 32.4855 42.3951C32.716 41.9939 32.6392 41.392 32.6264 40.9011C32.5282 36.9867 32.5623 38.1179 28.9382 37.8618C28.2424 37.8148 26.4709 37.9301 25.9331 38.199C25.1263 38.6003 25.1988 39.8681 25.2629 40.9096C25.3184 41.8402 25.5916 43.155 26.7911 42.5531C27.632 42.1347 27.2222 40.773 27.2179 39.7955C28.5241 39.7187 29.4718 39.8723 30.6926 39.8723V39.8681Z" fill="#1CA2A5"/>
<path fill-rule="evenodd" clip-rule="evenodd" d="M27.5341 29.8749C27.4701 30.8054 27.4829 35.3772 28.0463 36.1626C28.3793 36.6279 29.0922 36.7048 29.5276 36.2608C29.9886 35.787 29.7154 34.9888 29.6599 34.3442C29.5148 32.6709 29.7453 28.7992 29.0665 28.1973C29.3952 29.4821 28.7592 29.8535 27.5341 29.8791V29.8749Z" fill="#1CA2A5"/>
<path fill-rule="evenodd" clip-rule="evenodd" d="M22.8891 29.9351C22.5049 29.9351 22.0354 29.9607 21.6597 29.9266C21.2798 29.8881 21.028 29.7046 20.7462 29.5723C20.742 30.9084 20.8401 32.189 20.8444 33.5208C20.8487 34.6179 20.6566 36.304 21.7878 36.4619C23.252 36.6668 23.0044 34.8996 23.0001 33.7257C23.0001 32.4366 22.9062 31.2029 22.8891 29.9351Z" fill="#1CA2A5"/>
<path fill-rule="evenodd" clip-rule="evenodd" d="M40.2158 30.1403C39.8573 30.136 39.3322 30.1659 38.995 30.1232C38.6193 30.072 38.4742 29.8756 38.1882 29.7305C38.2053 30.9556 37.8168 33.2137 39.0035 33.4442C40.6598 33.7601 40.2286 31.3995 40.2158 30.1445V30.1403Z" fill="#1CA2A5"/>
</g>
<defs>
<clipPath id="clip0_1836_33482">
<rect width="72" height="72" fill="white" transform="translate(14 14)"/>
</clipPath>
</defs>
</svg>
