<svg width="48" height="48" viewBox="0 0 48 48" fill="none" xmlns="http://www.w3.org/2000/svg">
<rect width="48" height="48" rx="6" fill="#1CA2A5" fill-opacity="0.1"/>
<path fill-rule="evenodd" clip-rule="evenodd" d="M24 11C16.6784 11 11.0012 16.3652 11.0012 23.6088C11.0012 27.3979 12.5546 30.6736 15.0828 32.9354C15.2941 33.1238 15.424 33.3903 15.4305 33.6763L15.502 35.9901C15.5248 36.7277 16.2852 37.2087 16.9611 36.9097L19.5414 35.7723C19.7591 35.6748 20.0061 35.6586 20.2368 35.7203C21.423 36.0453 22.6838 36.2208 24 36.2208C31.3215 36.2208 36.9987 30.8556 36.9987 23.612C36.9987 16.3685 31.3215 11 24 11Z" fill="#1CA2A5"/>
<path fill-rule="evenodd" clip-rule="evenodd" d="M16.1957 27.2978L20.014 21.2404C20.6217 20.2752 21.9216 20.038 22.8348 20.7204L25.8732 22.9985C26.1527 23.2064 26.5361 23.2064 26.8124 22.9952L30.9135 19.882C31.4594 19.4661 32.1743 20.1225 31.8104 20.7042L27.9887 26.7583C27.3811 27.7235 26.0812 27.9607 25.168 27.2783L22.1296 25.0003C21.8501 24.7923 21.4666 24.7923 21.1904 25.0035L17.0893 28.1167C16.5434 28.5327 15.8285 27.8795 16.1957 27.2978Z" fill="white"/>
</svg>
