<svg width="48" height="48" viewBox="0 0 48 48" fill="none" xmlns="http://www.w3.org/2000/svg">
<path fill-rule="evenodd" clip-rule="evenodd" d="M10.6429 23.5982C10.6429 16.155 16.4766 10.6418 24 10.6418C31.5233 10.6418 37.357 16.1583 37.357 23.6015C37.357 31.0447 31.5233 36.5578 24 36.5578C22.6476 36.5578 21.3519 36.3775 20.1331 36.0436C19.896 35.9801 19.6422 35.9968 19.4185 36.097L16.7671 37.2657C16.0726 37.5729 15.2912 37.0787 15.2678 36.3207L15.1944 33.9432C15.1877 33.6493 15.0541 33.3755 14.837 33.1818C12.2391 30.8577 10.6429 27.4917 10.6429 23.5982ZM19.9025 21.1638L15.9788 27.3882C15.6015 27.986 16.3361 28.6571 16.8971 28.2297L21.1113 25.0307C21.3951 24.8137 21.7891 24.8137 22.0763 25.0274L25.1985 27.3682C26.1368 28.0694 27.4725 27.8257 28.097 26.8339L32.0239 20.6129C32.3979 20.0151 31.6633 19.3406 31.1023 19.768L26.8882 22.967C26.6043 23.1841 26.2103 23.1841 25.9231 22.9704L22.8009 20.6296C21.8626 19.9283 20.5269 20.1721 19.9025 21.1638Z" fill="white"/>
</svg>
