<svg width="49" height="48" viewBox="0 0 49 48" fill="none" xmlns="http://www.w3.org/2000/svg">
<rect x="0.75" width="48" height="48" rx="6" fill="#1CA2A5" fill-opacity="0.1"/>
<path d="M24.75 19.9375C22.4883 19.9375 20.6484 21.7773 20.6484 24.0391C20.6484 26.3008 22.4883 28.1406 24.75 28.1406C27.0117 28.1406 28.8516 26.3008 28.8516 24.0391C28.8516 21.7773 27.0117 19.9375 24.75 19.9375ZM24.75 19.9375C22.4883 19.9375 20.6484 21.7773 20.6484 24.0391C20.6484 26.3008 22.4883 28.1406 24.75 28.1406C27.0117 28.1406 28.8516 26.3008 28.8516 24.0391C28.8516 21.7773 27.0117 19.9375 24.75 19.9375ZM31.8203 14H17.6797C16.0625 14 14.75 15.3125 14.75 16.9297V31.0703C14.75 32.6875 16.0625 34 17.6797 34H31.8203C33.4375 34 34.75 32.6875 34.75 31.0703V16.9297C34.75 15.3125 33.4375 14 31.8203 14ZM24.75 29.3125C21.8438 29.3125 19.4766 26.9453 19.4766 24.0391C19.4766 21.1328 21.8438 18.7656 24.75 18.7656C27.6562 18.7656 30.0234 21.1328 30.0234 24.0391C30.0234 26.9453 27.6562 29.3125 24.75 29.3125ZM31.1953 18.7656C30.5508 18.7656 30.0234 18.2383 30.0234 17.5938C30.0234 16.9492 30.5508 16.4219 31.1953 16.4219C31.8398 16.4219 32.3672 16.9492 32.3672 17.5938C32.3672 18.2383 31.8398 18.7656 31.1953 18.7656ZM24.75 19.9375C22.4883 19.9375 20.6484 21.7773 20.6484 24.0391C20.6484 26.3008 22.4883 28.1406 24.75 28.1406C27.0117 28.1406 28.8516 26.3008 28.8516 24.0391C28.8516 21.7773 27.0117 19.9375 24.75 19.9375ZM24.75 19.9375C22.4883 19.9375 20.6484 21.7773 20.6484 24.0391C20.6484 26.3008 22.4883 28.1406 24.75 28.1406C27.0117 28.1406 28.8516 26.3008 28.8516 24.0391C28.8516 21.7773 27.0117 19.9375 24.75 19.9375ZM24.75 19.9375C22.4883 19.9375 20.6484 21.7773 20.6484 24.0391C20.6484 26.3008 22.4883 28.1406 24.75 28.1406C27.0117 28.1406 28.8516 26.3008 28.8516 24.0391C28.8516 21.7773 27.0117 19.9375 24.75 19.9375Z" fill="#1CA2A5"/>
</svg>
