<svg width="49" height="48" viewBox="0 0 49 48" fill="none" xmlns="http://www.w3.org/2000/svg">
<rect x="0.8125" width="48" height="48" rx="6" fill="#1CA2A5" fill-opacity="0.1"/>
<path d="M19.9034 15.5455C19.9034 16.2467 19.6955 16.9322 19.3059 17.5152C18.9163 18.0982 18.3626 18.5527 17.7147 18.821C17.0669 19.0894 16.354 19.1596 15.6663 19.0228C14.9785 18.886 14.3468 18.5483 13.8509 18.0525C13.3551 17.5566 13.0174 16.9249 12.8806 16.2371C12.7438 15.5494 12.814 14.8365 13.0824 14.1887C13.3507 13.5408 13.8052 12.9871 14.3882 12.5975C14.9713 12.2079 15.6567 12 16.358 12C17.2983 12 18.2001 12.3735 18.865 13.0384C19.5299 13.7033 19.9034 14.6051 19.9034 15.5455ZM19.0998 21.4545V37.1184C19.1004 37.2339 19.0782 37.3485 19.0344 37.4554C18.9906 37.5623 18.9261 37.6596 18.8446 37.7415C18.7631 37.8234 18.6662 37.8884 18.5595 37.9328C18.4528 37.9772 18.3384 38 18.2229 38H14.486C14.3704 38.0003 14.2559 37.9778 14.1491 37.9337C14.0423 37.8896 13.9452 37.8249 13.8635 37.7432C13.7818 37.6614 13.7171 37.5644 13.673 37.4576C13.6289 37.3508 13.6064 37.2363 13.6067 37.1207V21.4545C13.6067 21.2213 13.6993 20.9977 13.8642 20.8328C14.0291 20.6679 14.2528 20.5753 14.486 20.5753H18.2229C18.4557 20.5759 18.6787 20.6688 18.8431 20.8336C19.0075 20.9985 19.0998 21.2218 19.0998 21.4545ZM38.6329 29.6091V37.1916C38.6332 37.2979 38.6125 37.4031 38.572 37.5013C38.5314 37.5996 38.4719 37.6888 38.3968 37.7639C38.3217 37.8391 38.2324 37.8986 38.1342 37.9391C38.036 37.9796 37.9307 38.0003 37.8245 38H33.8063C33.7001 38.0003 33.5948 37.9796 33.4966 37.9391C33.3984 37.8986 33.3091 37.8391 33.234 37.7639C33.1589 37.6888 33.0994 37.5996 33.0588 37.5013C33.0183 37.4031 32.9976 37.2979 32.998 37.1916V29.8431C32.998 28.7464 33.3194 25.0402 30.1309 25.0402C27.6609 25.0402 27.1574 27.5764 27.0581 28.7156V37.1916C27.0582 37.404 26.9746 37.6078 26.8256 37.7591C26.6765 37.9104 26.4739 37.9969 26.2616 38H22.3805C22.2745 38 22.1695 37.9791 22.0715 37.9384C21.9736 37.8978 21.8846 37.8382 21.8097 37.7631C21.7349 37.688 21.6755 37.5989 21.6352 37.5008C21.5948 37.4027 21.5742 37.2977 21.5745 37.1916V21.386C21.5742 21.28 21.5948 21.1749 21.6352 21.0768C21.6755 20.9788 21.7349 20.8896 21.8097 20.8145C21.8846 20.7394 21.9736 20.6799 22.0715 20.6392C22.1695 20.5986 22.2745 20.5776 22.3805 20.5776H26.2616C26.476 20.5776 26.6816 20.6628 26.8332 20.8144C26.9848 20.966 27.07 21.1716 27.07 21.386V22.7522C27.987 21.3765 29.3461 20.3153 32.2463 20.3153C38.6707 20.3153 38.6329 26.3142 38.6329 29.6091Z" fill="#1CA2A5"/>
</svg>
