<svg width="49" height="48" viewBox="0 0 49 48" fill="none" xmlns="http://www.w3.org/2000/svg">
<rect x="0.25" width="48" height="48" rx="6" fill="#1CA2A5" fill-opacity="0.1"/>
<path d="M24.2451 12C17.6108 12 12.25 17.3706 12.25 23.9951C12.25 29.0794 15.4092 33.4233 19.8716 35.1707C19.763 34.2229 19.6741 32.7618 19.911 31.7252C20.1282 30.7873 21.3129 25.7622 21.3129 25.7622C21.3129 25.7622 20.9575 25.0416 20.9575 23.9852C20.9575 22.3167 21.925 21.0728 23.1295 21.0728C24.1562 21.0728 24.6498 21.8429 24.6498 22.761C24.6498 23.7877 23.9982 25.3278 23.6527 26.7594C23.3664 27.9539 24.2549 28.9313 25.4298 28.9313C27.5622 28.9313 29.2011 26.6804 29.2011 23.4422C29.2011 20.5693 27.1377 18.5652 24.1858 18.5652C20.77 18.5652 18.7658 21.1222 18.7658 23.768C18.7658 24.7947 19.1607 25.9004 19.6544 26.5027C19.7531 26.6211 19.763 26.7297 19.7333 26.8482C19.6445 27.2234 19.4372 28.0428 19.3977 28.2106C19.3483 28.4278 19.22 28.4772 18.9929 28.3686C17.512 27.6577 16.584 25.4661 16.584 23.7088C16.584 19.9276 19.3286 16.4525 24.5116 16.4525C28.6679 16.4525 31.9061 19.4142 31.9061 23.383C31.9061 27.5195 29.2998 30.8466 25.6864 30.8466C24.4721 30.8466 23.3269 30.2147 22.9419 29.4644C22.9419 29.4644 22.3397 31.7548 22.1916 32.3176C21.925 33.3641 21.1945 34.6672 20.7008 35.4669C21.8263 35.8124 23.011 36 24.2549 36C30.8794 36 36.25 30.6294 36.25 24.0049C36.2401 17.3706 30.8695 12 24.2451 12Z" fill="#1CA2A5"/>
</svg>
