<svg width="49" height="48" viewBox="0 0 49 48" fill="none" xmlns="http://www.w3.org/2000/svg">
<rect x="0.25" width="48" height="48" rx="6" fill="#0077B5"/>
<path d="M19.3409 15.5455C19.3409 16.2467 19.133 16.9322 18.7434 17.5152C18.3538 18.0982 17.8001 18.5527 17.1522 18.821C16.5044 19.0894 15.7915 19.1596 15.1038 19.0228C14.416 18.886 13.7843 18.5483 13.2884 18.0525C12.7926 17.5566 12.4549 16.9249 12.3181 16.2371C12.1813 15.5494 12.2515 14.8365 12.5199 14.1887C12.7882 13.5408 13.2427 12.9871 13.8257 12.5975C14.4088 12.2079 15.0942 12 15.7955 12C16.7358 12 17.6376 12.3735 18.3025 13.0384C18.9674 13.7033 19.3409 14.6051 19.3409 15.5455ZM18.5373 21.4545V37.1184C18.5379 37.2339 18.5157 37.3485 18.4719 37.4554C18.4281 37.5623 18.3636 37.6596 18.2821 37.7415C18.2006 37.8234 18.1037 37.8884 17.997 37.9328C17.8903 37.9772 17.7759 38 17.6604 38H13.9235C13.8079 38.0003 13.6934 37.9778 13.5866 37.9337C13.4798 37.8896 13.3827 37.8249 13.301 37.7432C13.2193 37.6614 13.1546 37.5644 13.1105 37.4576C13.0664 37.3508 13.0439 37.2363 13.0442 37.1207V21.4545C13.0442 21.2213 13.1368 20.9977 13.3017 20.8328C13.4666 20.6679 13.6903 20.5753 13.9235 20.5753H17.6604C17.8932 20.5759 18.1162 20.6688 18.2806 20.8336C18.445 20.9985 18.5373 21.2218 18.5373 21.4545ZM38.0704 29.6091V37.1916C38.0707 37.2979 38.05 37.4031 38.0095 37.5013C37.9689 37.5996 37.9094 37.6888 37.8343 37.7639C37.7592 37.8391 37.6699 37.8986 37.5717 37.9391C37.4735 37.9796 37.3682 38.0003 37.262 38H33.2438C33.1376 38.0003 33.0323 37.9796 32.9341 37.9391C32.8359 37.8986 32.7466 37.8391 32.6715 37.7639C32.5964 37.6888 32.5369 37.5996 32.4963 37.5013C32.4558 37.4031 32.4351 37.2979 32.4355 37.1916V29.8431C32.4355 28.7464 32.7569 25.0402 29.5684 25.0402C27.0984 25.0402 26.5949 27.5764 26.4956 28.7156V37.1916C26.4957 37.404 26.4121 37.6078 26.2631 37.7591C26.114 37.9104 25.9114 37.9969 25.6991 38H21.818C21.712 38 21.607 37.9791 21.509 37.9384C21.4111 37.8978 21.3221 37.8382 21.2472 37.7631C21.1724 37.688 21.113 37.5989 21.0727 37.5008C21.0323 37.4027 21.0117 37.2977 21.012 37.1916V21.386C21.0117 21.28 21.0323 21.1749 21.0727 21.0768C21.113 20.9788 21.1724 20.8896 21.2472 20.8145C21.3221 20.7394 21.4111 20.6799 21.509 20.6392C21.607 20.5986 21.712 20.5776 21.818 20.5776H25.6991C25.9135 20.5776 26.1191 20.6628 26.2707 20.8144C26.4223 20.966 26.5075 21.1716 26.5075 21.386V22.7522C27.4245 21.3765 28.7836 20.3153 31.6838 20.3153C38.1082 20.3153 38.0704 26.3142 38.0704 29.6091Z" fill="white"/>
</svg>
