<svg width="49" height="48" viewBox="0 0 49 48" fill="none" xmlns="http://www.w3.org/2000/svg">
<rect x="0.25" width="48" height="48" rx="6" fill="#1CA2A5" fill-opacity="0.1"/>
<path d="M31.9782 17.5605C31.8027 17.4698 31.6319 17.3704 31.4664 17.2626C30.985 16.9443 30.5436 16.5694 30.1518 16.1457C29.1714 15.024 28.8053 13.886 28.6704 13.0892H28.6758C28.5632 12.4279 28.6097 12 28.6168 12H24.1515V29.2664C24.1515 29.4982 24.1515 29.7273 24.1418 29.9537C24.1418 29.9819 24.1391 30.0079 24.1374 30.0382C24.1374 30.0507 24.1374 30.0637 24.1347 30.0767C24.1347 30.0799 24.1347 30.0832 24.1347 30.0864C24.0876 30.7059 23.8891 31.3044 23.5564 31.8292C23.2238 32.3539 22.7673 32.7889 22.2271 33.0958C21.6641 33.4161 21.0273 33.5841 20.3795 33.5833C18.2991 33.5833 16.613 31.8868 16.613 29.7918C16.613 27.6967 18.2991 26.0003 20.3795 26.0003C20.7733 25.9999 21.1647 26.0619 21.5392 26.1839L21.5446 21.6374C20.4079 21.4906 19.2531 21.5809 18.153 21.9027C17.053 22.2245 16.0316 22.7708 15.1532 23.5071C14.3836 24.1758 13.7366 24.9737 13.2413 25.8649C13.0528 26.1899 12.3416 27.4958 12.2555 29.6152C12.2013 30.8182 12.5626 32.0645 12.7348 32.5796V32.5904C12.8432 32.8937 13.2629 33.9288 13.947 34.8014C14.4986 35.5013 15.1504 36.1162 15.8812 36.6262V36.6154L15.892 36.6262C18.0537 38.0951 20.4505 37.9987 20.4505 37.9987C20.8654 37.9819 22.2552 37.9987 23.8336 37.2507C25.5841 36.4214 26.5808 35.186 26.5808 35.186C27.2175 34.4478 27.7237 33.6065 28.0779 32.6982C28.4819 31.6361 28.6168 30.3621 28.6168 29.853V20.6928C28.6709 20.7253 29.3924 21.2025 29.3924 21.2025C29.3924 21.2025 30.4318 21.8687 32.0535 22.3025C33.2169 22.6113 34.7844 22.6763 34.7844 22.6763V18.2435C34.2352 18.3031 33.12 18.1297 31.9782 17.5605Z" fill="#1CA2A5"/>
</svg>
