<svg width="49" height="48" viewBox="0 0 49 48" fill="none" xmlns="http://www.w3.org/2000/svg">
<rect x="0.25" width="48" height="48" rx="6" fill="#1CA2A5" fill-opacity="0.1"/>
<path d="M30.5393 22.1073C32.3399 23.399 34.5456 24.159 36.928 24.159V19.5583C36.4771 19.5584 36.0274 19.5112 35.5863 19.4174V23.0388C33.2042 23.0388 30.9987 22.2788 29.1976 20.9872V30.3759C29.1976 35.0726 25.4037 38.8798 20.724 38.8798C18.9778 38.8798 17.3549 38.35 16.0067 37.4415C17.5454 39.0204 19.6913 39.9999 22.0654 39.9999C26.7454 39.9999 30.5395 36.1927 30.5395 31.4958V22.1073H30.5393ZM32.1944 17.4657C31.2742 16.4568 30.67 15.153 30.5393 13.7116V13.1199H29.2678C29.5879 14.9519 30.6795 16.5171 32.1944 17.4657ZM18.9666 33.8373C18.4525 33.1608 18.1747 32.3333 18.1759 31.4824C18.1759 29.3343 19.9112 27.5926 22.0521 27.5926C22.4511 27.5925 22.8477 27.6538 23.228 27.7748V23.0713C22.7836 23.0102 22.3351 22.9842 21.8869 22.9938V26.6548C21.5063 26.5337 21.1096 26.4722 20.7105 26.4726C18.5696 26.4726 16.8344 28.2141 16.8344 30.3625C16.8344 31.8815 17.7017 33.1967 18.9666 33.8373Z" fill="#FF004F"/>
<path d="M29.1975 20.9871C30.9986 22.2787 33.2041 23.0387 35.5863 23.0387V19.4173C34.2565 19.1331 33.0794 18.4357 32.1943 17.4657C30.6793 16.517 29.5878 14.9518 29.2678 13.1199H25.9281V31.4956C25.9205 33.6378 24.1882 35.3724 22.0519 35.3724C20.793 35.3724 19.6746 34.7702 18.9663 33.8373C17.7015 33.1967 16.8341 31.8814 16.8341 30.3626C16.8341 28.2144 18.5693 26.4727 20.7102 26.4727C21.1204 26.4727 21.5157 26.5368 21.8866 26.6549V22.9939C17.2891 23.0892 13.5916 26.8592 13.5916 31.4957C13.5916 33.8102 14.5123 35.9085 16.0067 37.4416C17.3549 38.35 18.9779 38.8799 20.724 38.8799C25.4038 38.8799 29.1976 35.0725 29.1976 30.3759V20.9871H29.1975Z" fill="white"/>
<path d="M35.5863 19.4174V18.4382C34.3872 18.4401 33.2117 18.1031 32.1943 17.4658C33.0949 18.4552 34.2808 19.1375 35.5863 19.4174ZM29.2678 13.12C29.2373 12.9449 29.2138 12.7687 29.1976 12.5917V12H24.5863V30.3759C24.579 32.5179 22.8467 34.2525 20.7102 34.2525C20.083 34.2525 19.4908 34.1031 18.9663 33.8375C19.6746 34.7703 20.793 35.3725 22.0519 35.3725C24.188 35.3725 25.9206 33.6381 25.9281 31.4958V13.12H29.2678ZM21.8868 22.994V21.9515C21.5015 21.8987 21.1131 21.8722 20.7241 21.8724C16.0439 21.8723 12.25 25.6796 12.25 30.3759C12.25 33.3203 13.7411 35.9151 16.0069 37.4415C14.5124 35.9085 13.5917 33.8102 13.5917 31.4957C13.5917 26.8593 17.2891 23.0893 21.8868 22.994Z" fill="#00F2EA"/>
</svg>
