<svg width="104" height="33" viewBox="0 0 104 33" fill="none" xmlns="http://www.w3.org/2000/svg">
<rect x="0.785156" y="0.880371" width="102.429" height="31" rx="3.5" stroke="white"/>
<g clip-path="url(#clip0_1486_2437)">
<path d="M44.6707 24.2097H41.7638C41.6628 24.2097 41.5659 24.17 41.4944 24.0992C41.423 24.0285 41.3828 23.9325 41.3828 23.8325V12.5521C41.3825 12.4858 41.4 12.4205 41.4333 12.363C41.4666 12.3054 41.5147 12.2576 41.5727 12.2243C41.6306 12.191 41.6964 12.1734 41.7634 12.1733C41.8304 12.1733 41.8963 12.1907 41.9543 12.2239L44.8612 13.8876C44.9194 13.9209 44.9676 13.9687 45.0011 14.0264C45.0345 14.084 45.052 14.1494 45.0517 14.2159V23.8325C45.0517 23.9325 45.0116 24.0285 44.9401 24.0992C44.8687 24.17 44.7718 24.2097 44.6707 24.2097Z" fill="white"/>
<path d="M43.0176 8.20949H45.9246C46.0256 8.20949 46.1225 8.24924 46.194 8.31999C46.2654 8.39074 46.3055 8.4867 46.3055 8.58676V19.8671C46.3062 19.934 46.2889 19.9999 46.2554 20.058C46.2218 20.1161 46.1733 20.1643 46.1148 20.1977C46.0562 20.2311 45.9898 20.2485 45.9222 20.2481C45.8546 20.2477 45.7884 20.2295 45.7303 20.1953L42.8233 18.5354C42.7652 18.5021 42.7169 18.4543 42.6835 18.3966C42.65 18.339 42.6325 18.2736 42.6328 18.2071V8.58676C42.6328 8.5369 42.6428 8.48753 42.6622 8.44151C42.6816 8.39549 42.71 8.35373 42.7457 8.31865C42.7815 8.28357 42.824 8.25586 42.8706 8.23712C42.9173 8.21838 42.9673 8.20899 43.0176 8.20949Z" fill="white"/>
<path d="M44.8579 13.8871L42.6367 12.6157V18.2069C42.6365 18.2733 42.6539 18.3387 42.6874 18.3963C42.7208 18.454 42.7691 18.5018 42.8272 18.5351L45.0522 19.8065V14.2153C45.0521 14.1485 45.034 14.0829 44.9999 14.0252C44.9657 13.9675 44.9167 13.9199 44.8579 13.8871Z" fill="#160D0B"/>
<path d="M15.3331 24.2091C14.9323 24.2154 14.5345 24.1396 14.1648 23.9863C13.795 23.8331 13.4612 23.6058 13.1844 23.3187C12.8975 23.0447 12.6698 22.7158 12.5153 22.3519C12.3607 21.9881 12.2824 21.5969 12.2852 21.2022V12.5477C12.2852 12.4476 12.3254 12.3517 12.3968 12.2809C12.4683 12.2102 12.5652 12.1704 12.6662 12.1704H15.116C15.217 12.1704 15.3139 12.2102 15.3854 12.2809C15.4568 12.3517 15.497 12.4476 15.497 12.5477V20.659C15.497 20.759 15.5371 20.855 15.6086 20.9257C15.68 20.9965 15.7769 21.0362 15.878 21.0362H21.0251C21.1262 21.0362 21.2231 20.9965 21.2945 20.9257C21.366 20.855 21.4061 20.759 21.4061 20.659V12.559C21.4061 12.4589 21.4462 12.363 21.5177 12.2922C21.5891 12.2215 21.686 12.1817 21.7871 12.1817H24.2254C24.2754 12.1817 24.325 12.1915 24.3712 12.2104C24.4174 12.2294 24.4594 12.2572 24.4948 12.2922C24.5302 12.3273 24.5583 12.3689 24.5774 12.4146C24.5966 12.4604 24.6064 12.5095 24.6064 12.559V21.2022C24.6102 21.5964 24.5331 21.9872 24.3799 22.351C24.2266 22.7148 24.0004 23.044 23.7149 23.3187C23.4381 23.6058 23.1043 23.8331 22.7345 23.9863C22.3647 24.1396 21.9669 24.2154 21.5661 24.2091H15.3331Z" fill="white"/>
<path d="M29.8684 24.2091C29.4681 24.2158 29.0708 24.1401 28.7016 23.9869C28.3323 23.8336 27.9993 23.6061 27.7234 23.3187C27.4379 23.044 27.2117 22.7148 27.0585 22.351C26.9052 21.9872 26.8282 21.5964 26.8319 21.2022V16.9806C26.8319 16.8805 26.8721 16.7846 26.9435 16.7138C27.015 16.6431 27.1119 16.6033 27.2129 16.6033H35.9338V15.7243C35.9338 15.6242 35.8936 15.5283 35.8222 15.4575C35.7507 15.3868 35.6538 15.347 35.5528 15.347H27.2091C27.1081 15.347 27.0112 15.3073 26.9397 15.2365C26.8683 15.1658 26.8281 15.0698 26.8281 14.9697V12.5477C26.8281 12.4476 26.8683 12.3517 26.9397 12.2809C27.0112 12.2102 27.1081 12.1704 27.2091 12.1704H36.1166C36.925 12.1704 37.7002 12.4884 38.2718 13.0544C38.8434 13.6204 39.1645 14.3881 39.1645 15.1886V23.8356C39.1645 23.9356 39.1244 24.0316 39.053 24.1024C38.9815 24.1731 38.8846 24.2129 38.7836 24.2129L29.8684 24.2091ZM35.5833 21.0362C35.6843 21.0362 35.7812 20.9965 35.8527 20.9257C35.9241 20.855 35.9642 20.759 35.9642 20.659V19.3876H30.4323C30.3312 19.3876 30.2343 19.4273 30.1629 19.4981C30.0914 19.5688 30.0513 19.6648 30.0513 19.7648V20.659C30.0513 20.759 30.0914 20.855 30.1629 20.9257C30.2343 20.9965 30.3312 21.0362 30.4323 21.0362H35.5833Z" fill="white"/>
<path d="M51.587 24.2095C50.7805 24.2036 50.0087 23.8837 49.4384 23.3189C48.8681 22.7542 48.545 21.99 48.5391 21.1913V8.58674C48.5391 8.48668 48.5792 8.39072 48.6507 8.31997C48.7221 8.24922 48.819 8.20947 48.9201 8.20947H51.366C51.467 8.20947 51.5639 8.24922 51.6354 8.31997C51.7068 8.39072 51.747 8.48668 51.747 8.58674V12.1633H55.8693C55.9703 12.1633 56.0672 12.203 56.1387 12.2738C56.2101 12.3445 56.2503 12.4405 56.2503 12.5405V14.9701C56.2503 15.0702 56.2101 15.1662 56.1387 15.2369C56.0672 15.3077 55.9703 15.3474 55.8693 15.3474H51.7432V20.6594C51.7432 20.7594 51.7833 20.8554 51.8548 20.9261C51.9262 20.9969 52.0231 21.0366 52.1242 21.0366H55.8693C55.9703 21.0366 56.0672 21.0764 56.1387 21.1471C56.2101 21.2179 56.2503 21.3138 56.2503 21.4139V23.836C56.2503 23.936 56.2101 24.032 56.1387 24.1027C56.0672 24.1735 55.9703 24.2132 55.8693 24.2132L51.587 24.2095Z" fill="white"/>
<path d="M60.9776 24.2095C60.1711 24.2036 59.3993 23.8837 58.829 23.3189C58.2587 22.7542 57.9357 21.99 57.9297 21.1913V8.58674C57.9297 8.48668 57.9698 8.39072 58.0413 8.31997C58.1127 8.24922 58.2096 8.20947 58.3107 8.20947H60.7833C60.8843 8.20947 60.9813 8.24922 61.0527 8.31997C61.1242 8.39072 61.1643 8.48668 61.1643 8.58674V20.6594C61.1643 20.7594 61.2044 20.8554 61.2759 20.9261C61.3473 20.9969 61.4442 21.0366 61.5453 21.0366H63.2483C63.3494 21.0366 63.4463 21.0764 63.5177 21.1471C63.5892 21.2179 63.6293 21.3138 63.6293 21.4139V23.8473C63.6293 23.9474 63.5892 24.0433 63.5177 24.1141C63.4463 24.1848 63.3494 24.2246 63.2483 24.2246L60.9776 24.2095Z" fill="white"/>
<path d="M67.8838 24.2092C67.483 24.2155 67.0853 24.1397 66.7155 23.9865C66.3457 23.8333 66.0119 23.606 65.7351 23.3189C65.453 23.0426 65.2303 22.7127 65.0804 22.3489C64.9304 21.9852 64.8564 21.5952 64.8626 21.2024V16.9694C64.8626 16.8694 64.9027 16.7734 64.9742 16.7026C65.0456 16.6319 65.1426 16.5921 65.2436 16.5921H73.9797V15.7207C73.9797 15.6206 73.9395 15.5246 73.8681 15.4539C73.7966 15.3831 73.6997 15.3434 73.5987 15.3434H65.2169C65.1159 15.3434 65.019 15.3036 64.9475 15.2329C64.8761 15.1621 64.8359 15.0662 64.8359 14.9661V12.5516C64.8359 12.4515 64.8761 12.3556 64.9475 12.2848C65.019 12.2141 65.1159 12.1743 65.2169 12.1743H74.1244C74.9328 12.1743 75.708 12.4923 76.2796 13.0583C76.8512 13.6243 77.1723 14.392 77.1723 15.1925V23.8697C77.1723 23.9697 77.1322 24.0657 77.0608 24.1364C76.9893 24.2072 76.8924 24.2469 76.7914 24.2469L67.8838 24.2092ZM73.5987 21.0364C73.6997 21.0364 73.7966 20.9966 73.8681 20.9259C73.9395 20.8551 73.9797 20.7592 73.9797 20.6591V19.3764H68.4325C68.3314 19.3764 68.2345 19.4161 68.1631 19.4869C68.0916 19.5576 68.0515 19.6536 68.0515 19.7537V20.6591C68.0515 20.7592 68.0916 20.8551 68.1631 20.9259C68.2345 20.9966 68.3314 21.0364 68.4325 21.0364H73.5987Z" fill="white"/>
<path d="M79.3906 23.836V8.58674C79.3906 8.48668 79.4308 8.39072 79.5022 8.31997C79.5737 8.24922 79.6706 8.20947 79.7716 8.20947H82.2252C82.3262 8.20947 82.4231 8.24922 82.4946 8.31997C82.566 8.39072 82.6062 8.48668 82.6062 8.58674V12.1557H88.6753C89.4837 12.1557 90.259 12.4737 90.8305 13.0397C91.4021 13.6057 91.7233 14.3734 91.7233 15.1739V21.2102C91.727 21.6043 91.65 21.9952 91.4967 22.359C91.3435 22.7228 91.1172 23.052 90.8317 23.3267C90.5549 23.6138 90.2211 23.8411 89.8514 23.9943C89.4816 24.1475 89.0838 24.2233 88.683 24.217H79.7716C79.7213 24.217 79.6714 24.2071 79.6249 24.1879C79.5785 24.1687 79.5363 24.1406 79.5009 24.1052C79.4654 24.0698 79.4375 24.0277 79.4185 23.9815C79.3996 23.9353 79.3901 23.8858 79.3906 23.836ZM88.1534 21.0366C88.2544 21.0366 88.3513 20.9969 88.4228 20.9261C88.4942 20.8554 88.5344 20.7594 88.5344 20.6594V15.7285C88.5344 15.6284 88.4942 15.5324 88.4228 15.4617C88.3513 15.3909 88.2544 15.3512 88.1534 15.3512H82.5986V20.6594C82.5986 20.7594 82.6387 20.8554 82.7102 20.9261C82.7816 20.9969 82.8785 21.0366 82.9796 21.0366H88.1534Z" fill="white"/>
</g>
<defs>
<clipPath id="clip0_1486_2437">
<rect width="79.4286" height="16" fill="white" transform="translate(12.2852 8.38037)"/>
</clipPath>
</defs>
</svg>
