<svg width="104" height="32" viewBox="0 0 104 32" fill="none" xmlns="http://www.w3.org/2000/svg">
<rect x="0.5" y="0.5" width="102.429" height="31" rx="3.5" fill="white"/>
<rect x="0.5" y="0.5" width="102.429" height="31" rx="3.5" stroke="white"/>
<g clip-path="url(#clip0_601_8135)">
<path d="M44.3836 23.8294H41.4767C41.3757 23.8294 41.2787 23.7896 41.2073 23.7189C41.1358 23.6481 41.0957 23.5522 41.0957 23.4521V12.1717C41.0954 12.1054 41.1128 12.0401 41.1462 11.9826C41.1795 11.925 41.2276 11.8772 41.2855 11.8439C41.3435 11.8106 41.4093 11.793 41.4763 11.793C41.5433 11.7929 41.6092 11.8103 41.6672 11.8435L44.5741 13.5073C44.6323 13.5405 44.6805 13.5884 44.714 13.646C44.7474 13.7037 44.7649 13.769 44.7646 13.8355V23.4521C44.7646 23.5522 44.7245 23.6481 44.653 23.7189C44.5816 23.7896 44.4847 23.8294 44.3836 23.8294Z" fill="#373737"/>
<path d="M42.7305 7.82912H45.6375C45.7385 7.82912 45.8354 7.86887 45.9069 7.93962C45.9783 8.01037 46.0184 8.10633 46.0184 8.20639V19.4867C46.0191 19.5537 46.0018 19.6195 45.9683 19.6776C45.9347 19.7357 45.8862 19.784 45.8277 19.8174C45.7691 19.8508 45.7027 19.8681 45.6351 19.8677C45.5675 19.8673 45.5013 19.8491 45.4431 19.815L42.5362 18.155C42.4781 18.1217 42.4298 18.0739 42.3964 18.0162C42.3629 17.9586 42.3454 17.8932 42.3457 17.8268V8.20639C42.3457 8.15653 42.3557 8.10716 42.3751 8.06114C42.3945 8.01512 42.4229 7.97336 42.4586 7.93828C42.4944 7.90319 42.5369 7.87548 42.5835 7.85675C42.6302 7.83801 42.6802 7.82862 42.7305 7.82912Z" fill="#F58634"/>
<path d="M44.5727 13.5067L42.3516 12.2354V17.8265C42.3513 17.893 42.3688 17.9583 42.4022 18.016C42.4357 18.0736 42.4839 18.1215 42.5421 18.1547L44.767 19.4261V13.835C44.7669 13.7681 44.7489 13.7025 44.7147 13.6448C44.6806 13.5872 44.6316 13.5395 44.5727 13.5067Z" fill="#B93A38"/>
<path d="M15.048 23.8287C14.6472 23.835 14.2494 23.7592 13.8796 23.606C13.5098 23.4527 13.176 23.2255 12.8992 22.9384C12.6123 22.6643 12.3847 22.3354 12.2301 21.9716C12.0756 21.6077 11.9973 21.2166 12.0001 20.8219V12.1673C12.0001 12.0673 12.0402 11.9713 12.1117 11.9005C12.1831 11.8298 12.28 11.79 12.3811 11.79H14.8308C14.9319 11.79 15.0288 11.8298 15.1002 11.9005C15.1717 11.9713 15.2118 12.0673 15.2118 12.1673V20.2786C15.2118 20.3787 15.2519 20.4746 15.3234 20.5454C15.3948 20.6161 15.4918 20.6559 15.5928 20.6559H20.74C20.841 20.6559 20.9379 20.6161 21.0094 20.5454C21.0808 20.4746 21.1209 20.3787 21.1209 20.2786V12.1786C21.1209 12.0786 21.1611 11.9826 21.2325 11.9119C21.304 11.8411 21.4009 11.8014 21.5019 11.8014H23.9403C23.9903 11.8014 24.0398 11.8111 24.0861 11.8301C24.1323 11.849 24.1743 11.8768 24.2097 11.9119C24.245 11.9469 24.2731 11.9885 24.2922 12.0343C24.3114 12.08 24.3212 12.1291 24.3212 12.1786V20.8219C24.325 21.216 24.2479 21.6069 24.0947 21.9707C23.9415 22.3345 23.7152 22.6637 23.4297 22.9384C23.1529 23.2255 22.8191 23.4527 22.4493 23.606C22.0796 23.7592 21.6818 23.835 21.281 23.8287H15.048Z" fill="#373737"/>
<path d="M29.5833 23.8287C29.183 23.8354 28.7856 23.7598 28.4164 23.6065C28.0472 23.4532 27.7141 23.2257 27.4383 22.9384C27.1528 22.6637 26.9266 22.3345 26.7733 21.9707C26.6201 21.6069 26.543 21.216 26.5468 20.8219V16.6002C26.5468 16.5002 26.5869 16.4042 26.6584 16.3335C26.7298 16.2627 26.8267 16.223 26.9278 16.223H35.6486V15.3439C35.6486 15.2439 35.6085 15.1479 35.537 15.0771C35.4656 15.0064 35.3687 14.9666 35.2676 14.9666H26.924C26.8229 14.9666 26.726 14.9269 26.6546 14.8561C26.5831 14.7854 26.543 14.6894 26.543 14.5894V12.1673C26.543 12.0673 26.5831 11.9713 26.6546 11.9005C26.726 11.8298 26.8229 11.79 26.924 11.79H35.8315C36.6398 11.79 37.4151 12.108 37.9867 12.674C38.5583 13.2401 38.8794 14.0077 38.8794 14.8082V23.4552C38.8794 23.5553 38.8393 23.6512 38.7678 23.722C38.6964 23.7927 38.5994 23.8325 38.4984 23.8325L29.5833 23.8287ZM35.2981 20.6559C35.3991 20.6559 35.496 20.6161 35.5675 20.5454C35.6389 20.4746 35.6791 20.3787 35.6791 20.2786V19.0072H30.1471C30.0461 19.0072 29.9492 19.047 29.8777 19.1177C29.8063 19.1885 29.7661 19.2844 29.7661 19.3845V20.2786C29.7661 20.3787 29.8063 20.4746 29.8777 20.5454C29.9492 20.6161 30.0461 20.6559 30.1471 20.6559H35.2981Z" fill="#373737"/>
<path d="M51.3018 23.8291C50.4953 23.8232 49.7235 23.5033 49.1532 22.9386C48.5829 22.3738 48.2599 21.6096 48.2539 20.8109V8.20637C48.2539 8.10631 48.294 8.01035 48.3655 7.9396C48.4369 7.86885 48.5339 7.8291 48.6349 7.8291H51.0808C51.1819 7.8291 51.2788 7.86885 51.3502 7.9396C51.4217 8.01035 51.4618 8.10631 51.4618 8.20637V11.7829H55.5841C55.6852 11.7829 55.7821 11.8226 55.8535 11.8934C55.925 11.9641 55.9651 12.0601 55.9651 12.1602V14.5898C55.9651 14.6898 55.925 14.7858 55.8535 14.8565C55.7821 14.9273 55.6852 14.967 55.5841 14.967H51.458V20.279C51.458 20.3791 51.4982 20.475 51.5696 20.5458C51.6411 20.6165 51.738 20.6563 51.839 20.6563H55.5841C55.6852 20.6563 55.7821 20.696 55.8535 20.7668C55.925 20.8375 55.9651 20.9335 55.9651 21.0335V23.4556C55.9651 23.5557 55.925 23.6516 55.8535 23.7224C55.7821 23.7931 55.6852 23.8329 55.5841 23.8329L51.3018 23.8291Z" fill="#373737"/>
<path d="M60.6925 23.8291C59.8859 23.8232 59.1142 23.5033 58.5439 22.9386C57.9735 22.3738 57.6505 21.6096 57.6445 20.8109V8.20637C57.6445 8.10631 57.6847 8.01035 57.7561 7.9396C57.8276 7.86885 57.9245 7.8291 58.0255 7.8291H60.4981C60.5992 7.8291 60.6961 7.86885 60.7675 7.9396C60.839 8.01035 60.8791 8.10631 60.8791 8.20637V20.279C60.8791 20.3791 60.9193 20.475 60.9907 20.5458C61.0622 20.6165 61.1591 20.6563 61.2601 20.6563H62.9631C63.0642 20.6563 63.1611 20.696 63.2326 20.7668C63.304 20.8375 63.3441 20.9335 63.3441 21.0335V23.4669C63.3441 23.567 63.304 23.6629 63.2326 23.7337C63.1611 23.8044 63.0642 23.8442 62.9631 23.8442L60.6925 23.8291Z" fill="#373737"/>
<path d="M67.5967 23.8288C67.1959 23.8352 66.7981 23.7593 66.4284 23.6061C66.0586 23.4529 65.7248 23.2256 65.448 22.9385C65.1659 22.6622 64.9432 22.3323 64.7933 21.9686C64.6433 21.6048 64.5693 21.2148 64.5755 20.822V16.589C64.5755 16.489 64.6156 16.393 64.6871 16.3223C64.7585 16.2515 64.8554 16.2118 64.9565 16.2118H73.6926V15.3403C73.6926 15.2402 73.6524 15.1443 73.581 15.0735C73.5095 15.0028 73.4126 14.963 73.3116 14.963H64.9298C64.8288 14.963 64.7319 14.9233 64.6604 14.8525C64.589 14.7818 64.5488 14.6858 64.5488 14.5857V12.1712C64.5488 12.0712 64.589 11.9752 64.6604 11.9044C64.7319 11.8337 64.8288 11.7939 64.9298 11.7939H73.8373C74.6457 11.7939 75.4209 12.1119 75.9925 12.6779C76.5641 13.244 76.8852 14.0116 76.8852 14.8121V23.4893C76.8852 23.5894 76.8451 23.6853 76.7737 23.7561C76.7022 23.8268 76.6053 23.8666 76.5043 23.8666L67.5967 23.8288ZM73.3116 20.656C73.4126 20.656 73.5095 20.6163 73.581 20.5455C73.6524 20.4748 73.6926 20.3788 73.6926 20.2787V18.996H68.1454C68.0443 18.996 67.9474 19.0358 67.876 19.1065C67.8045 19.1773 67.7644 19.2732 67.7644 19.3733V20.2787C67.7644 20.3788 67.8045 20.4748 67.876 20.5455C67.9474 20.6163 68.0443 20.656 68.1454 20.656H73.3116Z" fill="#373737"/>
<path d="M79.1055 23.4556V8.20637C79.1055 8.10631 79.1456 8.01035 79.2171 7.9396C79.2885 7.86885 79.3854 7.8291 79.4865 7.8291H81.94C82.0411 7.8291 82.138 7.86885 82.2094 7.9396C82.2809 8.01035 82.321 8.10631 82.321 8.20637V11.7753H88.3902C89.1985 11.7753 89.9738 12.0933 90.5454 12.6593C91.117 13.2254 91.4381 13.993 91.4381 14.7935V20.8298C91.4419 21.224 91.3648 21.6148 91.2116 21.9786C91.0583 22.3424 90.8321 22.6716 90.5466 22.9463C90.2698 23.2334 89.936 23.4607 89.5662 23.6139C89.1964 23.7671 88.7986 23.843 88.3978 23.8366H79.4865C79.4361 23.8366 79.3863 23.8268 79.3398 23.8076C79.2933 23.7884 79.2511 23.7603 79.2157 23.7248C79.1803 23.6894 79.1523 23.6473 79.1334 23.6011C79.1145 23.5549 79.105 23.5055 79.1055 23.4556ZM87.8682 20.6563C87.9693 20.6563 88.0662 20.6165 88.1376 20.5458C88.2091 20.475 88.2492 20.3791 88.2492 20.279V15.3481C88.2492 15.248 88.2091 15.1521 88.1376 15.0813C88.0662 15.0106 87.9693 14.9708 87.8682 14.9708H82.3134V20.279C82.3134 20.3791 82.3536 20.475 82.425 20.5458C82.4965 20.6165 82.5934 20.6563 82.6944 20.6563H87.8682Z" fill="#373737"/>
</g>
<defs>
<clipPath id="clip0_601_8135">
<rect width="79.4286" height="16" fill="white" transform="translate(12 8)"/>
</clipPath>
</defs>
</svg>
