<svg width="48" height="48" viewBox="0 0 48 48" fill="none" xmlns="http://www.w3.org/2000/svg">
<rect width="48" height="48" rx="6" fill="#1CA2A5" fill-opacity="0.1"/>
<path d="M33.5122 15.675C31.1415 13.3125 27.9805 12 24.6439 12C17.7073 12 12.0878 17.6 12.0878 24.5125C12.0878 26.7 12.7024 28.8875 13.7561 30.725L12 37.2L18.6732 35.45C20.5171 36.4125 22.5366 36.9375 24.6439 36.9375C31.5805 36.9375 37.2 31.3375 37.2 24.425C37.1122 21.1875 35.8829 18.0375 33.5122 15.675ZM30.7024 28.975C30.439 29.675 29.2098 30.375 28.5951 30.4625C28.0683 30.55 27.3659 30.55 26.6634 30.375C26.2244 30.2 25.6098 30.025 24.9073 29.675C21.7463 28.3625 19.7268 25.2125 19.5512 24.95C19.3756 24.775 18.2341 23.2875 18.2341 21.7125C18.2341 20.1375 19.0244 19.4375 19.2878 19.0875C19.5512 18.7375 19.9024 18.7375 20.1659 18.7375C20.3415 18.7375 20.6049 18.7375 20.7805 18.7375C20.9561 18.7375 21.2195 18.65 21.4829 19.2625C21.7463 19.875 22.361 21.45 22.4488 21.5375C22.5366 21.7125 22.5366 21.8875 22.4488 22.0625C22.361 22.2375 22.2732 22.4125 22.0976 22.5875C21.9219 22.7625 21.7463 23.025 21.6585 23.1125C21.4829 23.2875 21.3073 23.4625 21.4829 23.725C21.6585 24.075 22.2732 25.0375 23.239 25.9125C24.4683 26.9625 25.4341 27.3125 25.7854 27.4875C26.1366 27.6625 26.3122 27.575 26.4878 27.4C26.6634 27.225 27.2781 26.525 27.4537 26.175C27.6293 25.825 27.8927 25.9125 28.1561 26C28.4195 26.0875 30 26.875 30.2634 27.05C30.6146 27.225 30.7902 27.3125 30.878 27.4C30.9659 27.6625 30.9659 28.275 30.7024 28.975Z" fill="#1CA2A5"/>
</svg>
