<svg width="48" height="48" viewBox="0 0 48 48" fill="none" xmlns="http://www.w3.org/2000/svg">
<path d="M37.6985 17.1272C37.369 15.9033 36.404 14.9383 35.18 14.6088C32.944 13.9968 24 13.9968 24 13.9968C24 13.9968 15.0559 13.9968 12.8199 14.5853C11.6195 14.9148 10.6309 15.9033 10.3014 17.1272C9.71298 19.3633 9.71298 24.0001 9.71298 24.0001C9.71298 24.0001 9.71298 28.6604 10.3014 30.8729C10.6309 32.0968 11.5959 33.0618 12.8199 33.3913C15.0794 34.0033 24 34.0033 24 34.0033C24 34.0033 32.944 34.0033 35.18 33.4149C36.404 33.0854 37.369 32.1203 37.6985 30.8964C38.2869 28.6604 38.2869 24.0236 38.2869 24.0236C38.2869 24.0236 38.3105 19.3633 37.6985 17.1272Z" fill="white"/>
<path d="M21.152 28.2838L28.5897 24L21.152 19.7163V28.2838Z" fill="#FF0000"/>
</svg>
